<!DOCTYPE svg PUBLIC "-//W3C//DTD SVG 20010904//EN" "http://www.w3.org/TR/2001/REC-SVG-20010904/DTD/svg10.dtd">
<svg version="1.0" xmlns="http://www.w3.org/2000/svg" width="1600px" height="900px" viewBox="0 0 16000 9000" preserveAspectRatio="xMidYMid meet">
<g id="layer1" fill="#fffefc" stroke="none">
 <path d="M4549 5275 c-60 -19 -133 -85 -165 -146 -56 -112 -59 -139 -59 -579 0 -362 2 -412 18 -469 52 -184 146 -271 302 -278 92 -5 165 15 240 67 l45 31 0 -331 0 -330 190 0 190 0 0 1015 0 1015 -187 -2 -188 -3 -3 -48 -3 -48 -35 30 c-66 58 -131 84 -219 88 -51 2 -96 -3 -126 -12z m351 -260 l30 -16 0 -460 0 -459 -27 -11 c-16 -7 -49 -14 -75 -16 -42 -5 -50 -2 -76 24 -49 48 -54 100 -50 495 3 311 5 358 21 392 9 21 25 45 35 52 23 18 106 17 142 -1z"/>
 <path d="M5724 5277 c-58 -23 -93 -57 -126 -125 l-33 -67 -3 -632 -3 -633 191 0 190 0 0 574 c0 565 0 574 21 600 17 21 29 26 65 26 25 0 62 -9 84 -20 l40 -20 2 -578 3 -577 188 -3 187 -2 0 725 0 725 -187 -2 -188 -3 -3 -63 -3 -63 -39 34 c-113 96 -285 142 -386 104z"/>
 <path d="M7100 5276 c-144 -32 -239 -116 -297 -262 l-28 -69 -3 -359 c-4 -393 1 -450 47 -550 55 -119 144 -191 277 -222 95 -22 286 -15 366 14 174 63 244 178 255 420 l6 122 -187 0 -186 0 0 -112 c0 -137 -15 -178 -70 -191 -44 -11 -83 3 -107 40 -17 25 -18 59 -18 439 0 401 1 413 21 440 25 34 63 45 108 33 54 -15 66 -53 66 -203 l0 -126 185 0 185 0 0 93 c-1 238 -61 375 -199 450 -96 53 -289 72 -421 43z"/>
 <path d="M8100 5269 c-146 -58 -234 -236 -202 -409 41 -216 171 -338 495 -460 l87 -33 0 -99 c0 -142 -24 -188 -99 -188 -64 0 -100 63 -101 178 l0 52 -97 0 c-54 0 -136 -3 -182 -7 l-84 -6 7 -79 c11 -129 65 -252 139 -314 44 -37 119 -72 189 -89 82 -19 238 -19 313 0 122 32 215 120 257 245 21 62 22 87 29 580 4 283 11 541 15 573 l6 57 -170 0 -170 0 -7 -47 c-4 -27 -11 -70 -17 -97 l-10 -49 -30 54 c-60 110 -121 150 -238 156 -59 2 -87 -1 -130 -18z m326 -281 l49 -33 3 -202 c1 -112 0 -203 -3 -203 -16 0 -95 63 -138 109 -65 69 -87 120 -87 202 0 73 24 123 70 146 37 19 53 16 106 -19z"/>
 <path d="M9455 5283 c-109 -12 -194 -56 -240 -124 -16 -22 -39 -77 -53 -122 -24 -81 -25 -89 -30 -524 l-4 -443 -64 0 -64 0 0 -125 0 -125 65 0 65 0 2 -212 3 -213 193 -3 192 -2 0 215 0 215 105 0 105 0 0 125 0 125 -105 0 -105 0 0 409 c0 236 4 420 10 435 16 44 55 61 145 62 l80 0 0 144 0 144 -40 7 c-53 9 -222 16 -260 12z"/>
 <path d="M10888 5274 c-168 -40 -278 -153 -314 -323 -20 -94 -20 -718 0 -812 47 -221 210 -339 466 -339 267 1 437 124 480 349 13 70 13 722 0 792 -24 125 -108 242 -212 295 -102 51 -294 69 -420 38z m205 -253 c15 -6 32 -26 43 -53 17 -39 19 -78 22 -382 4 -376 -4 -463 -44 -503 -17 -17 -34 -23 -64 -23 -57 0 -75 13 -97 67 -16 44 -18 83 -18 418 0 335 2 375 18 417 10 27 26 52 35 58 22 12 74 13 105 1z"/>
 <path d="M3275 5258 c-3 -7 -4 -463 -3 -1013 l3 -1000 443 -3 442 -2 0 145 0 145 -235 0 -235 0 0 265 0 265 180 0 180 0 0 145 0 145 -180 0 -180 0 0 315 0 315 235 0 235 0 0 145 0 145 -440 0 c-343 0 -442 -3 -445 -12z"/>
 <path d="M9950 4545 l0 -725 190 0 190 0 0 725 0 725 -190 0 -190 0 0 -725z"/>
 <path d="M11760 4545 l0 -725 190 0 190 0 0 71 0 70 48 -39 c98 -82 199 -122 307 -122 112 0 195 67 232 188 16 52 18 113 18 667 l0 610 -187 3 -188 2 -1 -532 c0 -293 -4 -555 -8 -581 -4 -27 -16 -56 -25 -65 -26 -26 -95 -20 -150 12 l-46 27 0 569 0 570 -190 0 -190 0 0 -725z"/>
 <path d="M9950 3445 l0 -145 190 0 191 0 -3 143 -3 142 -187 3 -188 2 0 -145z"/>
 </g>
<g id="layer2" fill="#ffa500" stroke="none">
 <path d="M9589 7466 c-3 -3 -129 -8 -280 -11 -151 -3 -366 -7 -479 -11 -113 -3 -293 -7 -400 -10 -107 -2 -280 -6 -385 -8 -104 -3 -235 -4 -290 -4 -218 3 -576 -1 -680 -6 -60 -4 -123 -5 -140 -4 -50 3 -113 1 -245 -10 -105 -8 -135 -14 -180 -37 -106 -54 -177 -132 -205 -228 -9 -33 -17 -43 -36 -45 -25 -3 -167 26 -259 53 -86 25 -214 16 -282 -21 -45 -24 -68 -29 -158 -34 -63 -4 -119 -13 -140 -22 -21 -10 -71 -18 -125 -20 -163 -7 -272 -80 -355 -238 -42 -81 -44 -89 -48 -185 -3 -76 0 -110 11 -138 l16 -37 -37 -1 c-20 0 -192 0 -381 0 -465 0 -598 -9 -676 -44 -108 -49 -197 -165 -220 -287 l-6 -33 -107 0 c-101 0 -111 -2 -172 -32 -132 -66 -199 -120 -245 -199 -30 -51 -59 -175 -51 -218 l6 -33 -82 -5 c-136 -9 -257 -81 -323 -193 -28 -49 -58 -177 -50 -215 3 -14 10 -61 15 -104 21 -166 124 -298 266 -341 25 -7 56 -21 70 -30 l25 -16 -48 -39 c-64 -54 -106 -124 -127 -214 -16 -65 -17 -84 -6 -138 19 -100 19 -101 -17 -109 -18 -3 -58 -22 -89 -40 -126 -76 -182 -195 -201 -425 -14 -176 92 -334 265 -393 34 -11 71 -21 81 -21 37 0 33 -22 -12 -68 -93 -97 -126 -199 -107 -332 12 -86 48 -154 112 -217 44 -43 147 -103 177 -103 9 0 40 -9 69 -20 29 -11 71 -20 94 -20 23 0 69 -11 103 -25 56 -22 80 -25 251 -29 104 -3 257 -6 341 -6 l151 0 11 -33 c19 -54 81 -135 131 -172 66 -48 120 -67 225 -76 50 -4 146 -13 215 -20 69 -6 159 -13 200 -15 41 -1 131 -5 200 -9 69 -3 152 -7 185 -8 167 -6 158 -4 151 -33 -10 -38 12 -142 45 -211 36 -76 114 -150 190 -179 30 -12 86 -34 124 -49 50 -20 98 -30 170 -36 55 -5 141 -13 190 -18 166 -19 199 -22 555 -42 489 -28 527 -30 590 -34 30 -2 123 -6 205 -9 83 -3 186 -8 230 -12 270 -22 348 -22 410 0 70 24 149 80 189 135 38 53 76 148 76 191 0 36 4 36 50 9 19 -12 75 -29 125 -39 49 -10 104 -24 120 -30 17 -6 66 -13 110 -15 44 -2 103 -8 130 -13 28 -5 115 -7 195 -4 80 3 174 4 209 3 35 0 92 6 128 14 35 8 86 15 113 15 84 0 182 44 251 111 55 55 109 146 109 186 0 20 51 38 155 56 99 17 196 50 215 72 6 7 25 17 41 20 44 10 140 78 174 124 29 38 32 40 75 34 25 -2 72 -13 105 -24 34 -11 88 -21 120 -23 33 -3 91 -9 129 -15 38 -6 85 -11 105 -10 20 1 61 -3 93 -9 31 -6 78 -7 105 -3 26 4 66 3 88 -2 22 -5 56 -6 75 -2 19 3 87 10 150 16 293 24 305 26 360 51 80 36 154 108 193 187 29 61 32 74 31 161 0 52 -7 130 -15 172 l-15 77 60 -1 c62 -2 175 19 277 52 122 39 226 151 249 271 22 108 18 102 48 96 15 -3 56 -15 91 -28 61 -22 69 -22 200 -12 108 8 147 15 191 35 79 36 150 104 191 184 31 63 34 75 34 160 l0 93 41 10 c22 6 57 22 78 36 20 14 41 25 47 25 23 0 117 45 157 76 90 68 152 185 152 286 0 47 0 47 38 54 76 14 153 72 195 146 21 37 31 72 39 141 18 163 8 225 -64 373 -20 42 -127 142 -185 173 -12 6 -46 16 -75 21 -29 6 -76 21 -104 35 -28 14 -54 25 -58 25 -4 0 -22 11 -39 24 -39 29 -131 76 -149 76 -8 0 -30 11 -50 25 -44 30 -106 53 -173 65 -27 5 -84 17 -125 28 -135 35 -259 62 -290 62 -16 0 -30 2 -30 5 0 3 27 32 60 64 40 40 71 82 93 128 29 61 32 77 32 158 0 80 -4 97 -31 155 -41 86 -99 149 -172 188 -33 18 -65 32 -71 32 -6 0 -27 18 -47 40 -50 55 -145 105 -222 119 -44 7 -75 19 -102 41 -21 17 -54 37 -74 45 -26 11 -36 21 -36 38 0 42 -57 143 -111 197 -72 72 -150 107 -276 121 -313 35 -516 53 -573 51 -30 -1 -82 3 -115 9 -41 7 -74 7 -104 0 -40 -9 -50 -7 -100 19 -83 43 -138 60 -195 60 -66 0 -190 26 -241 50 -53 25 -157 44 -200 37 -47 -8 -37 6 20 27 25 10 45 22 45 27 0 5 -31 9 -70 9 -60 0 -70 2 -70 18 0 34 -68 157 -106 193 -90 84 -209 127 -314 113 -30 -4 -57 -7 -60 -6 -40 7 -126 12 -131 8z m-4782 -2209 c29 -15 68 -41 87 -58 l35 -30 3 48 3 48 188 3 187 2 0 -1015 0 -1015 -190 0 -190 0 0 330 0 331 -45 -31 c-75 -52 -148 -72 -240 -67 -156 7 -250 94 -302 278 -16 57 -18 107 -18 469 0 440 3 467 59 579 32 61 105 127 165 146 73 23 194 15 258 -18z m1109 19 c64 -17 141 -58 194 -103 l39 -34 3 63 3 63 188 3 187 2 0 -725 0 -725 -187 2 -188 3 -3 577 -2 578 -40 20 c-22 11 -59 20 -84 20 -36 0 -48 -5 -65 -26 -21 -26 -21 -35 -21 -600 l0 -574 -190 0 -191 0 3 633 3 632 33 67 c47 97 108 136 212 137 30 0 78 -5 106 -13z m1487 -1 c219 -46 316 -197 317 -492 l0 -93 -185 0 -185 0 0 126 c0 150 -12 188 -66 203 -45 12 -83 1 -108 -33 -20 -27 -21 -39 -21 -440 0 -380 1 -414 18 -439 24 -37 63 -51 107 -40 55 13 70 54 70 191 l0 112 186 0 187 0 -6 -122 c-11 -242 -81 -357 -255 -420 -80 -29 -271 -36 -366 -14 -133 31 -222 103 -277 222 -46 100 -51 157 -47 550 l3 359 28 69 c76 191 208 273 442 275 50 0 121 -6 158 -14z m942 -12 c51 -27 87 -65 123 -132 l30 -54 10 49 c6 27 13 70 17 97 l7 47 170 0 170 0 -6 -57 c-4 -32 -11 -290 -15 -573 -7 -493 -8 -518 -29 -580 -42 -125 -135 -213 -257 -245 -75 -19 -231 -19 -313 0 -70 17 -145 52 -189 89 -74 62 -128 185 -139 314 l-7 79 84 6 c46 4 128 7 182 7 l97 0 0 -52 c1 -115 37 -178 101 -178 75 0 99 46 99 188 l0 99 -87 33 c-324 122 -454 244 -495 460 -32 173 56 351 202 409 71 28 185 25 245 -6z m1370 8 l40 -7 0 -144 0 -144 -80 0 c-90 -1 -129 -18 -145 -62 -6 -15 -10 -199 -10 -435 l0 -409 105 0 105 0 0 -125 0 -125 -105 0 -105 0 0 -215 0 -215 -192 2 -193 3 -3 213 -2 212 -65 0 -65 0 0 125 0 125 64 0 64 0 4 443 c5 435 6 443 30 524 14 45 37 100 53 122 46 68 131 112 240 124 38 4 207 -3 260 -12z m1476 5 c174 -37 296 -162 329 -335 13 -70 13 -722 0 -792 -43 -225 -213 -348 -480 -349 -256 0 -419 118 -466 339 -20 94 -20 718 0 812 36 170 146 283 314 323 75 19 220 19 303 2z m-7031 -151 l0 -145 -235 0 -235 0 0 -315 0 -315 180 0 180 0 0 -145 0 -145 -180 0 -180 0 0 -265 0 -265 235 0 235 0 0 -145 0 -145 -442 2 -443 3 -3 1000 c-1 550 0 1006 3 1013 3 9 102 12 445 12 l440 0 0 -145z m6170 -580 l0 -725 -190 0 -190 0 0 725 0 725 190 0 190 0 0 -725z m1810 155 l0 -569 46 -27 c55 -32 124 -38 150 -12 9 9 21 38 25 65 4 26 8 288 8 581 l1 532 188 -2 187 -3 0 -610 c0 -679 0 -677 -68 -767 -98 -130 -308 -116 -489 34 l-48 39 0 -70 0 -71 -190 0 -190 0 0 725 0 725 190 0 190 0 0 -570z m-1812 -1257 l3 -143 -191 0 -190 0 0 145 0 145 188 -2 187 -3 3 -142z"/>
 <path d="M4758 5016 c-10 -7 -26 -31 -35 -52 -16 -34 -18 -81 -21 -392 -4 -395 1 -447 50 -495 26 -26 34 -29 76 -24 26 2 59 9 75 16 l27 11 0 459 0 460 -30 16 c-36 18 -119 19 -142 1z"/>
 <path d="M8320 5007 c-46 -23 -70 -73 -70 -146 0 -82 22 -133 87 -202 43 -46 122 -109 138 -109 3 0 4 91 3 203 l-3 202 -49 33 c-53 35 -69 38 -106 19z"/>
 <path d="M10988 5020 c-9 -6 -25 -31 -35 -58 -16 -42 -18 -82 -18 -417 0 -335 2 -374 18 -418 22 -54 40 -67 97 -67 30 0 47 6 64 23 40 40 48 127 44 503 -3 304 -5 343 -22 382 -11 27 -28 47 -43 53 -31 12 -83 11 -105 -1z"/>
 </g>

</svg>