<!DOCTYPE svg PUBLIC "-//W3C//DTD SVG 20010904//EN" "http://www.w3.org/TR/2001/REC-SVG-20010904/DTD/svg10.dtd">
<svg version="1.0" xmlns="http://www.w3.org/2000/svg" width="626px" height="626px" viewBox="0 0 6260 6260" preserveAspectRatio="xMidYMid meet">
<g id="layer1" fill="#ffa500" stroke="none">
 <path d="M775 6244 c-96 -23 -125 -34 -210 -76 -219 -111 -428 -338 -512 -558 -57 -151 -54 -5 -51 -2505 3 -2168 4 -2294 21 -2365 48 -197 219 -432 417 -572 83 -59 238 -132 315 -150 49 -11 478 -14 2350 -16 2500 -3 2354 -6 2505 51 220 84 447 293 558 512 43 87 53 114 77 217 13 59 15 329 15 2345 0 2070 -1 2285 -16 2353 -63 288 -279 552 -571 699 -153 76 -142 75 -911 79 l-682 2 2 -1192 3 -1193 515 -5 515 -5 0 -490 0 -490 -515 -5 -515 -5 -3 -260 c-2 -220 0 -268 14 -313 17 -53 76 -131 118 -155 15 -9 139 -13 461 -17 l440 -5 0 -490 0 -490 -435 -3 c-452 -3 -502 0 -635 40 -388 116 -716 471 -834 902 -45 162 -53 241 -56 521 l-3 270 -379 5 -378 5 0 490 0 490 380 5 380 5 -1 28 c0 15 -1 551 -2 1192 l-2 1165 -1157 -1 c-969 -1 -1168 -3 -1218 -15z"/>
 </g>

</svg>