<!DOCTYPE svg PUBLIC "-//W3C//DTD SVG 20010904//EN" "http://www.w3.org/TR/2001/REC-SVG-20010904/DTD/svg10.dtd">
<svg version="1.0" xmlns="http://www.w3.org/2000/svg" width="512px" height="512px" viewBox="0 0 5120 5120" preserveAspectRatio="xMidYMid meet">
<g id="layer1" fill="#ffa500" stroke="none">
 <path d="M1615 5036 c-505 -198 -882 -498 -1199 -955 -169 -242 -323 -592 -369 -836 -36 -189 -40 -233 -44 -565 -6 -423 8 -571 77 -812 113 -392 352 -789 656 -1090 404 -399 889 -636 1469 -720 120 -17 590 -17 710 0 781 113 1422 525 1840 1183 134 211 261 509 313 734 44 194 55 344 49 710 -4 327 -8 372 -44 560 -46 242 -201 595 -369 836 -319 459 -712 771 -1213 960 -172 65 -270 53 -307 -37 -11 -27 -14 -117 -14 -443 0 -448 -6 -509 -57 -624 -15 -34 -47 -86 -70 -114 -64 -79 -57 -96 42 -107 364 -43 683 -199 851 -418 182 -236 276 -690 209 -1008 -30 -142 -91 -274 -179 -388 -62 -79 -68 -106 -42 -180 30 -85 40 -196 27 -295 -13 -103 -55 -254 -77 -277 -42 -44 -342 68 -580 216 -39 24 -83 44 -98 44 -15 0 -62 -9 -104 -19 -330 -83 -734 -83 -1064 0 -42 10 -89 19 -104 19 -15 0 -59 -20 -98 -44 -211 -131 -524 -251 -574 -220 -23 15 -47 84 -73 206 -24 116 -22 232 6 328 9 30 18 76 22 101 5 44 3 49 -55 125 -139 182 -197 364 -195 614 1 291 77 561 211 756 93 136 253 255 456 339 93 38 296 89 406 100 103 11 112 30 51 103 -52 61 -88 135 -108 219 -9 37 -20 73 -25 80 -33 43 -311 85 -427 65 -141 -25 -236 -93 -339 -244 -39 -58 -97 -129 -130 -159 -76 -70 -178 -121 -255 -127 -88 -7 -99 18 -29 71 122 91 147 114 188 170 26 34 77 127 115 206 57 118 79 153 124 197 117 113 295 163 534 149 69 -4 146 -8 171 -9 l45 -1 3 273 c2 237 0 278 -14 308 -23 48 -59 64 -141 63 -56 0 -88 -8 -178 -43z"/>
 </g>

</svg>