<!DOCTYPE svg PUBLIC "-//W3C//DTD SVG 20010904//EN" "http://www.w3.org/TR/2001/REC-SVG-20010904/DTD/svg10.dtd">
<svg version="1.0" xmlns="http://www.w3.org/2000/svg" width="1600px" height="900px" viewBox="0 0 16000 9000" preserveAspectRatio="xMidYMid meet">
<g id="layer1" fill="#fffefd" stroke="none">
 <path d="M4912 6408 l3 -963 185 0 185 0 3 53 3 52 45 -34 c118 -90 259 -117 370 -71 46 19 112 82 136 129 11 22 30 70 41 106 19 59 21 96 25 433 4 469 -7 556 -92 680 -59 87 -128 122 -235 122 -85 -1 -154 -26 -242 -90 l-49 -35 0 290 0 290 -190 0 -190 0 2 -962z m575 218 c39 -46 44 -111 41 -498 -3 -389 -4 -394 -57 -442 -27 -25 -106 -18 -150 13 l-31 23 2 451 3 451 45 18 c60 24 118 17 147 -16z"/>
 <path d="M6490 6910 c-193 -34 -316 -150 -356 -339 -17 -82 -20 -695 -3 -787 16 -87 70 -193 124 -243 100 -92 257 -134 426 -113 160 19 257 77 316 189 54 100 65 158 70 376 l5 197 -292 0 -293 0 6 173 c7 229 25 277 106 277 81 0 111 -53 111 -195 l0 -95 180 0 180 0 0 83 c0 279 -120 437 -362 477 -72 11 -152 11 -218 0z m220 -999 c0 -122 -6 -154 -36 -186 -17 -19 -33 -25 -64 -25 -86 0 -107 37 -117 200 l-6 110 111 0 112 0 0 -99z"/>
 <path d="M9195 6913 c-16 -2 -57 -13 -91 -24 -155 -50 -243 -153 -279 -327 -21 -96 -21 -688 0 -785 43 -205 170 -322 377 -348 219 -28 402 38 481 174 56 96 70 166 75 385 l4 202 -286 0 -286 0 0 175 c0 230 16 275 99 275 84 0 111 -45 111 -189 l0 -101 180 0 180 0 0 93 c0 109 -26 225 -63 284 -38 59 -122 130 -182 152 -92 35 -216 48 -320 34z m205 -1013 c0 -159 -22 -200 -105 -200 -83 0 -105 41 -105 200 l0 110 105 0 105 0 0 -110z"/>
 <path d="M11558 6910 c-181 -31 -286 -120 -345 -295 l-28 -80 0 -360 c0 -314 2 -368 18 -424 53 -194 175 -299 376 -322 133 -16 254 0 348 46 83 41 124 84 166 174 29 61 31 74 35 208 l5 143 -182 0 -181 0 0 -110 c0 -160 -21 -200 -108 -200 -28 0 -45 7 -63 26 l-24 26 -3 411 c-2 377 -1 415 15 447 31 61 125 65 163 7 10 -15 16 -64 20 -157 l5 -135 179 -3 178 -2 -4 152 c-4 130 -8 162 -28 213 -32 83 -123 173 -205 203 -106 39 -226 50 -337 32z"/>
 <path d="M12696 6910 c-103 -19 -168 -51 -231 -114 -64 -65 -96 -121 -120 -213 -22 -83 -22 -743 0 -826 24 -92 56 -149 120 -212 71 -72 136 -101 263 -117 165 -21 327 19 414 104 96 94 127 200 135 466 l6 192 -293 0 -292 0 4 178 c6 232 22 272 110 272 78 0 108 -55 108 -195 l0 -95 181 0 182 0 -7 116 c-11 189 -53 284 -160 365 -68 52 -159 79 -275 84 -53 2 -118 0 -145 -5z m224 -1004 c0 -156 -26 -206 -110 -206 -82 0 -110 61 -110 238 l0 72 110 0 110 0 0 -104z"/>
 <path d="M2770 5880 l0 -1010 440 0 441 0 -3 143 -3 142 -232 3 -233 2 0 265 0 265 180 0 180 0 0 145 0 145 -180 0 -180 0 0 315 0 315 235 0 235 0 0 140 0 140 -440 0 -440 0 0 -1010z"/>
 <path d="M3743 6878 c3 -7 39 -98 81 -203 41 -104 109 -275 150 -378 l75 -189 -148 -326 c-81 -180 -146 -330 -144 -334 2 -5 85 -8 183 -8 175 0 180 1 194 23 8 12 47 94 86 182 40 88 73 161 75 163 1 1 33 -75 70 -170 37 -95 72 -179 78 -185 11 -14 292 -19 300 -5 4 6 -103 271 -193 482 -67 157 -81 192 -86 218 -5 22 25 96 141 353 81 178 154 339 161 357 l14 32 -191 -2 -191 -3 -87 -192 c-47 -105 -89 -194 -92 -198 -4 -3 -28 52 -53 122 -26 70 -59 161 -74 200 l-27 73 -164 0 c-127 0 -162 -3 -158 -12z"/>
 <path d="M7302 6168 l3 -723 185 0 185 0 3 109 3 108 48 -69 c83 -117 157 -166 244 -161 l52 3 3 171 2 172 -77 -1 c-96 -1 -154 25 -226 102 l-47 50 0 481 0 480 -190 0 -190 0 2 -722z"/>
 <path d="M8202 6168 l3 -723 185 0 185 0 3 723 2 722 -190 0 -190 0 2 -722z"/>
 <path d="M9990 6165 l0 -725 188 2 187 3 3 67 3 68 51 -41 c159 -125 343 -152 445 -64 24 20 51 59 69 97 l29 63 3 628 3 627 -190 0 -190 0 -3 -576 -3 -576 -24 -19 c-31 -26 -75 -24 -138 6 l-53 24 0 571 0 570 -190 0 -190 0 0 -725z"/>
 <path d="M8200 5065 l0 -145 190 0 190 0 0 145 0 145 -190 0 -190 0 0 -145z"/>
 <path d="M4595 3914 c-147 -23 -270 -105 -327 -217 -52 -104 -58 -157 -58 -533 0 -306 2 -349 20 -417 23 -94 56 -152 116 -207 101 -93 256 -133 434 -112 212 25 354 151 389 346 14 76 15 714 1 787 -14 73 -60 168 -106 218 -76 84 -191 130 -344 136 -52 2 -108 1 -125 -1z m167 -281 c39 -35 43 -74 43 -463 0 -285 -3 -384 -13 -412 -35 -100 -148 -105 -190 -9 -14 30 -17 90 -20 366 -5 434 7 516 79 536 32 9 80 1 101 -18z"/>
 <path d="M6540 3910 c-193 -34 -316 -150 -356 -339 -17 -82 -20 -695 -3 -787 16 -87 70 -193 124 -243 100 -92 257 -134 426 -113 160 19 257 77 316 189 54 100 65 158 70 376 l5 197 -292 0 -293 0 6 173 c7 229 25 277 106 277 81 0 111 -53 111 -195 l0 -95 180 0 180 0 0 83 c0 279 -120 437 -362 477 -72 11 -152 11 -218 0z m220 -999 c0 -122 -6 -154 -36 -186 -17 -19 -33 -25 -64 -25 -86 0 -107 37 -117 200 l-6 110 111 0 112 0 0 -99z"/>
 <path d="M7650 3910 c-113 -20 -222 -84 -284 -169 -42 -57 -99 -176 -94 -193 3 -7 63 -36 134 -64 l129 -52 28 61 c52 115 100 157 176 157 48 0 96 -36 104 -77 12 -65 -36 -125 -238 -298 -193 -164 -249 -235 -287 -359 -69 -226 86 -450 337 -487 154 -23 300 24 394 126 53 59 109 165 113 215 3 30 1 32 -110 81 -62 27 -116 49 -120 49 -5 0 -16 -22 -26 -50 -50 -138 -153 -199 -226 -132 -75 68 -46 119 181 322 258 231 305 293 330 431 22 124 -29 265 -126 344 -100 83 -267 120 -415 95z"/>
 <path d="M8653 3905 c-144 -31 -252 -122 -324 -272 -23 -46 -39 -87 -35 -90 5 -5 265 -113 273 -113 2 0 3 6 3 13 0 27 60 134 93 166 30 28 46 35 91 39 51 4 57 2 86 -26 70 -70 31 -138 -189 -328 -177 -154 -238 -221 -284 -314 -27 -55 -32 -77 -35 -155 -5 -119 18 -182 95 -265 163 -176 467 -185 632 -20 57 57 103 133 124 206 l15 52 -121 53 c-67 30 -124 54 -126 54 -2 0 -9 -19 -16 -42 -19 -64 -71 -139 -109 -157 -42 -20 -69 -20 -106 -1 -58 30 -66 90 -21 152 16 22 100 104 187 182 209 187 276 265 310 358 52 143 18 298 -88 400 -106 102 -286 145 -455 108z"/>
 <path d="M10390 3910 c-64 -12 -138 -38 -179 -65 -54 -34 -120 -110 -146 -169 -43 -96 -47 -148 -43 -546 l3 -375 26 -63 c52 -122 130 -197 251 -240 63 -22 90 -25 193 -26 169 0 261 29 356 112 56 50 105 140 124 229 21 96 21 709 1 804 -35 163 -134 272 -289 321 -70 22 -228 32 -297 18z m177 -276 c39 -25 45 -73 50 -399 7 -454 -5 -528 -91 -550 -50 -12 -84 7 -111 60 -19 37 -20 64 -23 387 -4 360 3 442 36 488 31 41 89 47 139 14z"/>
 <path d="M12643 3901 c-141 -48 -220 -154 -230 -310 -10 -149 37 -272 142 -369 81 -75 148 -114 308 -178 l132 -53 3 -66 c4 -81 -12 -172 -35 -197 -20 -23 -90 -24 -120 -3 -25 18 -43 71 -43 130 -1 89 8 85 -169 79 -216 -7 -202 -2 -195 -72 30 -280 165 -416 434 -437 249 -19 408 72 469 269 20 64 21 90 21 435 1 349 11 648 26 725 l6 36 -170 0 c-154 0 -171 -2 -176 -17 -2 -10 -10 -51 -16 -90 -7 -40 -14 -73 -16 -73 -2 0 -15 22 -28 49 -48 94 -156 162 -255 161 -20 -1 -59 -9 -88 -19z m293 -282 c62 -38 64 -44 64 -251 0 -127 -3 -188 -11 -188 -18 0 -93 56 -136 103 -77 84 -104 168 -83 257 22 90 94 124 166 79z"/>
 <path d="M2000 2880 l0 -1010 364 0 c205 0 387 4 417 10 78 15 171 62 227 114 97 91 141 215 149 421 12 319 -98 502 -344 571 -37 11 -119 19 -228 23 l-170 6 -3 438 -2 437 -205 0 -205 0 0 -1010z m680 -186 c19 -11 46 -40 60 -65 21 -38 25 -60 28 -165 5 -143 -11 -214 -57 -258 -37 -35 -82 -45 -203 -46 l-98 0 0 281 0 281 118 -3 c96 -3 123 -8 152 -25z"/>
 <path d="M3342 3168 l3 -723 185 0 185 0 5 109 5 108 49 -71 c76 -112 151 -161 246 -161 l50 0 0 174 0 174 -72 -1 c-98 -1 -161 27 -228 100 l-50 55 0 479 0 479 -190 0 -190 0 2 -722z"/>
 <path d="M5470 3300 l0 -590 -70 0 -71 0 3 -132 3 -133 68 -3 67 -3 0 -57 c1 -113 18 -240 40 -289 58 -131 186 -182 423 -168 l107 7 0 143 0 143 -60 -5 c-100 -9 -130 29 -130 165 l0 62 95 0 95 0 0 135 0 135 -95 0 -95 0 0 590 0 590 -190 0 -190 0 0 -590z"/>
 <path d="M9402 3168 l3 -723 185 0 185 0 3 723 2 722 -190 0 -190 0 2 -722z"/>
 <path d="M11222 3168 l3 -723 185 0 185 0 3 67 3 66 75 -53 c101 -73 168 -98 269 -99 98 -1 150 24 196 93 59 90 59 87 59 758 l0 613 -190 0 -190 0 0 -569 c0 -560 0 -569 -21 -595 -27 -34 -78 -35 -147 0 l-52 26 0 569 0 569 -190 0 -190 0 2 -722z"/>
 <path d="M13630 2880 l0 -1010 190 0 190 0 0 1010 0 1010 -190 0 -190 0 0 -1010z"/>
 <path d="M9400 2065 l0 -145 190 0 190 0 0 145 0 145 -190 0 -190 0 0 -145z"/>
 </g>
<g id="layer2" fill="#ffa500" stroke="none">
 <path d="M8589 7915 c-4 -3 -148 -8 -320 -11 -173 -3 -377 -9 -454 -14 -140 -10 -271 -17 -420 -24 -70 -3 -277 -5 -402 -4 -24 0 -72 0 -108 0 -36 0 -82 0 -102 1 -21 0 -56 -1 -78 -2 -100 -7 -374 9 -435 25 -93 24 -185 15 -280 -25 -63 -27 -84 -32 -130 -27 -30 2 -154 11 -275 18 -121 8 -226 18 -233 22 -7 4 -232 8 -500 8 -476 1 -488 0 -544 -21 -122 -47 -223 -164 -253 -295 -10 -44 -15 -51 -47 -62 -123 -42 -243 -200 -255 -335 l-6 -56 -131 -7 c-72 -3 -377 -6 -677 -6 -517 0 -549 -1 -610 -20 -80 -24 -145 -66 -202 -130 -53 -58 -72 -97 -95 -187 l-17 -68 -110 0 c-102 0 -115 -2 -176 -31 -162 -77 -271 -277 -241 -442 l9 -50 -51 -33 c-69 -46 -137 -134 -165 -214 -20 -56 -23 -79 -19 -163 4 -72 11 -110 28 -147 23 -51 70 -119 101 -145 15 -13 17 -26 12 -82 l-6 -67 -61 5 c-33 3 -88 12 -121 19 -94 22 -234 29 -301 15 -199 -41 -344 -217 -344 -420 0 -208 147 -386 348 -421 32 -6 91 -21 132 -35 41 -13 98 -24 125 -24 28 0 79 -7 115 -17 l65 -16 2 -66 c0 -36 6 -78 12 -93 10 -27 10 -28 -27 -28 -20 0 -55 -5 -77 -11 -45 -13 -98 -16 -380 -23 -252 -6 -271 -9 -347 -47 -173 -87 -270 -292 -228 -476 37 -160 187 -309 332 -328 36 -5 168 -36 168 -39 0 -1 -9 -30 -20 -64 -25 -81 -25 -173 0 -254 11 -34 20 -64 20 -64 0 -1 -15 -4 -34 -7 -105 -17 -236 -121 -289 -229 -79 -161 -45 -369 79 -492 49 -48 140 -106 166 -106 8 0 36 -11 62 -25 70 -37 159 -65 209 -65 24 0 70 -9 102 -20 32 -11 82 -20 111 -20 29 0 65 -5 81 -11 15 -6 69 -14 118 -19 50 -5 111 -15 137 -22 42 -11 47 -16 53 -46 8 -44 60 -150 88 -182 12 -14 39 -40 60 -57 34 -30 44 -33 100 -33 l62 0 0 -117 c0 -116 1 -119 37 -194 27 -56 54 -92 98 -133 l61 -56 102 -2 c56 -1 118 -2 137 -1 54 2 201 -18 244 -33 21 -8 58 -14 83 -14 25 0 62 -9 86 -22 31 -15 69 -23 142 -28 55 -3 107 -10 115 -15 8 -5 125 -15 260 -22 135 -7 292 -15 350 -19 120 -7 151 -8 200 -6 19 1 87 -2 150 -5 235 -12 493 -8 780 12 36 2 130 6 210 9 80 2 192 7 250 9 58 3 136 6 174 6 38 0 97 4 130 10 34 6 144 16 246 21 102 6 228 15 280 21 52 5 127 11 165 14 39 2 93 7 120 10 281 32 1209 10 1410 -35 28 -6 73 -10 100 -10 28 1 106 -4 175 -10 76 -7 445 -14 945 -17 451 -3 885 -6 965 -8 252 -5 654 -26 690 -36 47 -12 162 -11 195 1 15 6 206 15 426 20 219 6 410 15 424 20 15 6 56 10 93 10 37 0 92 7 122 15 30 8 81 15 112 15 59 0 168 34 218 68 23 15 69 17 472 18 l448 1 45 38 c58 47 108 126 134 210 25 79 27 143 6 210 -8 27 -12 51 -10 54 3 2 103 4 223 3 119 -1 233 3 252 8 19 5 112 12 205 14 193 5 248 15 320 56 309 177 280 637 -48 767 -64 25 -68 28 -62 52 11 44 19 46 118 34 159 -20 280 16 380 114 87 85 129 187 128 310 -1 121 -55 242 -143 317 -46 40 -271 153 -322 163 -17 3 -39 12 -48 21 -16 14 -16 17 8 58 53 91 68 213 38 328 -18 72 -43 114 -101 177 l-43 47 62 4 c35 3 75 1 90 -3 15 -4 104 -7 199 -7 139 0 183 3 231 18 306 95 399 493 168 720 -53 52 -110 81 -250 126 -207 66 -190 58 -155 76 91 48 180 167 205 276 14 59 9 184 -9 244 -18 58 -91 160 -144 198 l-47 35 67 6 c233 23 393 199 393 433 0 187 -120 348 -303 405 -59 18 -95 21 -285 22 -273 1 -419 5 -481 14 l-48 7 -5 81 c-4 62 -13 98 -35 148 l-30 65 29 35 c98 117 130 256 92 402 -44 169 -172 278 -381 321 -45 10 -113 17 -150 17 -37 0 -387 2 -778 4 -390 2 -723 0 -740 -3 -16 -4 -48 -5 -70 -2 -22 3 -65 1 -95 -3 -74 -11 -121 -9 -140 7 -57 50 -150 83 -240 87 -25 1 -65 8 -90 17 -25 8 -110 19 -190 24 -227 14 -247 16 -380 28 -69 7 -145 12 -170 11 -25 0 -103 -2 -175 -4 -71 -2 -188 0 -260 5 -134 10 -332 19 -397 20 -21 0 -67 0 -103 0 -36 0 -83 0 -105 0 -22 0 -69 0 -105 0 -36 0 -83 0 -105 0 -48 0 -142 0 -205 0 -25 0 -72 0 -105 0 -33 0 -77 1 -97 1 -21 1 -63 -1 -93 -3 -30 -2 -84 0 -120 4 -36 4 -68 5 -71 1z m-3299 -835 l0 -290 49 35 c88 64 157 89 242 90 107 0 176 -35 235 -122 85 -124 96 -211 92 -680 -4 -337 -6 -374 -25 -433 -11 -36 -30 -84 -41 -106 -24 -47 -90 -110 -136 -129 -111 -46 -252 -19 -370 71 l-45 34 -3 -52 -3 -53 -185 0 -185 0 -3 963 -2 962 190 0 190 0 0 -290z m1418 -170 c99 -16 167 -46 227 -102 93 -85 135 -202 135 -375 l0 -83 -180 0 -180 0 0 95 c0 142 -30 195 -111 195 -81 0 -99 -48 -106 -277 l-6 -173 293 0 292 0 -5 -197 c-5 -218 -16 -276 -70 -376 -59 -112 -156 -170 -316 -189 -169 -21 -326 21 -426 113 -54 50 -108 156 -124 243 -17 92 -14 705 3 787 54 255 278 387 574 339z m2690 0 c133 -22 237 -86 299 -183 37 -59 63 -175 63 -284 l0 -93 -180 0 -180 0 0 101 c0 144 -27 189 -111 189 -83 0 -99 -45 -99 -275 l0 -175 286 0 286 0 -4 -202 c-4 -176 -8 -212 -28 -273 -58 -182 -160 -264 -353 -287 -242 -29 -434 57 -514 229 -46 100 -53 163 -53 513 0 344 7 410 50 506 80 181 292 273 538 234z m2377 0 c110 -18 174 -48 241 -114 90 -90 106 -139 112 -334 l4 -152 -178 2 -179 3 -5 135 c-4 93 -10 142 -20 157 -38 58 -132 54 -163 -7 -16 -32 -17 -70 -15 -447 l3 -411 24 -26 c18 -19 35 -26 63 -26 87 0 108 40 108 200 l0 110 181 0 182 0 -5 -143 c-4 -134 -6 -147 -35 -208 -42 -90 -83 -133 -166 -174 -94 -46 -215 -62 -348 -46 -201 23 -323 128 -376 322 -16 56 -18 110 -18 424 l0 360 28 80 c36 108 77 166 156 223 92 67 257 96 406 72z m1227 -20 c36 -12 87 -38 114 -59 107 -81 149 -176 160 -365 l7 -116 -182 0 -181 0 0 95 c0 140 -30 195 -108 195 -88 0 -104 -40 -110 -272 l-4 -178 292 0 293 0 -6 -192 c-8 -266 -39 -372 -135 -466 -87 -85 -249 -125 -414 -104 -127 16 -192 45 -263 117 -64 63 -96 120 -120 212 -22 83 -22 743 0 826 24 92 56 148 120 213 63 63 128 95 231 114 78 14 231 4 306 -20z m-9352 -140 l0 -140 -235 0 -235 0 0 -315 0 -315 180 0 180 0 0 -145 0 -145 -180 0 -180 0 0 -265 0 -265 233 -2 232 -3 3 -142 3 -143 -441 0 -440 0 0 1010 0 1010 440 0 440 0 0 -140z m442 67 c15 -39 48 -130 74 -200 25 -70 49 -125 53 -122 3 4 45 93 92 198 l87 192 191 3 191 2 -14 -32 c-7 -18 -80 -179 -161 -357 -116 -257 -146 -331 -141 -353 5 -26 19 -61 86 -218 90 -211 197 -476 193 -482 -8 -14 -289 -9 -300 5 -6 6 -41 90 -78 185 -37 95 -69 171 -70 170 -2 -2 -35 -75 -75 -163 -39 -88 -78 -170 -86 -182 -14 -22 -19 -23 -194 -23 -98 0 -181 3 -183 8 -2 4 63 154 144 334 l148 326 -75 189 c-41 103 -109 274 -150 378 -42 105 -78 196 -81 203 -4 9 31 12 158 12 l164 0 27 -73z m3588 -407 l0 -481 47 -50 c72 -77 130 -103 226 -102 l77 1 -2 -172 -3 -171 -52 -3 c-87 -5 -161 44 -244 161 l-48 69 -3 -108 -3 -109 -185 0 -185 0 -3 723 -2 722 190 0 190 0 0 -480z m898 -242 l-3 -723 -185 0 -185 0 -3 723 -2 722 190 0 190 0 -2 -722z m1792 152 l0 -571 53 -24 c63 -30 107 -32 138 -6 l24 19 3 576 3 576 190 0 190 0 -3 -627 -3 -628 -29 -63 c-18 -38 -45 -77 -69 -97 -102 -88 -286 -61 -445 64 l-51 41 -3 -68 -3 -67 -187 -3 -188 -2 0 725 0 725 190 0 190 0 0 -570z m-1790 -1255 l0 -145 -190 0 -190 0 0 145 0 145 190 0 190 0 0 -145z m-3703 -1173 c82 -26 141 -61 187 -113 46 -50 92 -145 106 -218 14 -73 13 -711 -1 -787 -35 -195 -177 -321 -389 -346 -178 -21 -333 19 -434 112 -60 55 -93 113 -116 207 -18 68 -20 111 -20 417 0 376 6 429 58 533 57 112 180 194 327 217 61 9 221 -3 282 -22z m1881 18 c99 -16 167 -46 227 -102 93 -85 135 -202 135 -375 l0 -83 -180 0 -180 0 0 95 c0 142 -30 195 -111 195 -81 0 -99 -48 -106 -277 l-6 -173 293 0 292 0 -5 -197 c-5 -218 -16 -276 -70 -376 -59 -112 -156 -170 -316 -189 -169 -21 -326 21 -426 113 -54 50 -108 156 -124 243 -17 92 -14 705 3 787 54 255 278 387 574 339z m1104 -5 c182 -38 288 -135 324 -295 14 -62 15 -83 5 -139 -25 -138 -72 -200 -330 -431 -227 -203 -256 -254 -181 -322 73 -67 176 -6 226 132 10 28 21 50 26 50 4 0 58 -22 120 -49 111 -49 113 -51 110 -81 -4 -50 -60 -156 -113 -215 -94 -102 -240 -149 -394 -126 -251 37 -406 261 -337 487 38 124 94 195 287 359 202 173 250 233 238 298 -8 41 -56 77 -104 77 -76 0 -124 -42 -176 -157 l-28 -61 -129 52 c-71 28 -131 57 -134 64 -5 17 52 136 94 193 103 140 300 206 496 164z m1031 0 c135 -28 233 -99 290 -210 25 -49 31 -76 35 -143 4 -71 1 -92 -22 -155 -34 -93 -101 -171 -310 -358 -87 -78 -171 -160 -187 -182 -45 -62 -37 -122 21 -152 37 -19 64 -19 106 1 38 18 90 93 109 157 7 23 14 42 16 42 2 0 59 -24 126 -54 l121 -53 -15 -52 c-50 -170 -186 -293 -354 -318 -156 -23 -304 25 -402 132 -77 83 -100 146 -95 265 6 162 65 248 319 469 220 190 259 258 189 328 -29 28 -35 30 -86 26 -45 -4 -61 -11 -91 -39 -33 -32 -93 -139 -93 -166 0 -7 -1 -13 -3 -13 -8 0 -268 108 -273 113 -13 12 78 177 125 229 111 121 291 172 474 133z m1794 -13 c155 -49 254 -158 289 -321 20 -95 20 -708 -1 -804 -19 -89 -68 -179 -124 -229 -95 -83 -187 -112 -356 -112 -103 1 -130 4 -193 26 -121 43 -199 118 -251 240 l-26 63 -3 375 c-4 398 0 450 43 546 26 59 92 135 146 169 41 27 115 53 179 65 69 14 227 4 297 -18z m2130 13 c63 -19 136 -82 169 -146 13 -27 26 -49 28 -49 2 0 9 33 16 73 6 39 14 80 16 90 5 15 22 17 176 17 l170 0 -6 -36 c-15 -77 -25 -376 -26 -725 0 -345 -1 -371 -21 -435 -35 -114 -95 -185 -192 -229 -149 -69 -390 -52 -529 37 -103 65 -163 185 -182 360 -7 70 -21 65 195 72 177 6 168 10 169 -79 0 -59 18 -112 43 -130 30 -21 100 -20 120 3 23 25 39 116 35 197 l-3 66 -132 53 c-160 64 -227 103 -308 178 -105 97 -152 220 -142 369 10 156 89 262 230 310 64 23 108 23 174 4z m-10405 -452 l3 -438 170 -6 c109 -4 191 -12 228 -23 136 -38 228 -109 282 -219 52 -106 68 -196 62 -352 -8 -206 -52 -330 -149 -421 -56 -52 -149 -99 -227 -114 -30 -6 -212 -10 -417 -10 l-364 0 0 1010 0 1010 205 0 205 0 2 -437z m1308 -42 l0 -479 50 -55 c67 -73 130 -101 228 -100 l72 1 0 -174 0 -174 -50 0 c-95 0 -170 49 -246 161 l-49 71 -5 -108 -5 -109 -185 0 -185 0 -3 723 -2 722 190 0 190 0 0 -479z m2130 -111 l0 -590 95 0 95 0 0 -135 0 -135 -95 0 -95 0 0 -62 c0 -136 30 -174 130 -165 l60 5 0 -143 0 -143 -107 -7 c-237 -14 -365 37 -423 168 -22 49 -39 176 -40 289 l0 57 -67 3 -68 3 -3 133 -3 132 71 0 70 0 0 590 0 590 190 0 190 0 0 -590z m3928 -132 l-3 -723 -185 0 -185 0 -3 723 -2 722 190 0 190 0 -2 -722z m1822 153 l0 -569 52 -26 c69 -35 120 -34 147 0 21 26 21 35 21 595 l0 569 190 0 190 0 0 -613 c0 -671 0 -668 -59 -758 -46 -69 -98 -94 -196 -93 -101 1 -168 26 -269 99 l-75 53 -3 -66 -3 -67 -185 0 -185 0 -3 723 -2 722 190 0 190 0 0 -569z m2410 -441 l0 -1010 -190 0 -190 0 0 1010 0 1010 190 0 190 0 0 -1010z m-4230 -815 l0 -145 -190 0 -190 0 0 145 0 145 190 0 190 0 0 -145z"/>
 <path d="M5340 6642 l-45 -18 -3 -451 -2 -451 31 -23 c44 -31 123 -38 150 -13 53 48 54 53 57 442 3 387 -2 452 -41 498 -29 33 -87 40 -147 16z"/>
 <path d="M6493 5900 c10 -163 31 -200 117 -200 31 0 47 6 64 25 30 32 36 64 36 186 l0 99 -112 0 -111 0 6 -110z"/>
 <path d="M9190 5900 c0 -159 22 -200 105 -200 83 0 105 41 105 200 l0 110 -105 0 -105 0 0 -110z"/>
 <path d="M12700 5938 c0 -177 28 -238 110 -238 84 0 110 50 110 206 l0 104 -110 0 -110 0 0 -72z"/>
 <path d="M4661 3651 c-72 -20 -84 -102 -79 -536 3 -276 6 -336 20 -366 42 -96 155 -91 190 9 10 28 13 127 13 412 0 389 -4 428 -43 463 -21 19 -69 27 -101 18z"/>
 <path d="M6543 2900 c10 -163 31 -200 117 -200 31 0 47 6 64 25 30 32 36 64 36 186 l0 99 -112 0 -111 0 6 -110z"/>
 <path d="M10471 3651 c-13 -3 -32 -18 -43 -31 -33 -46 -40 -128 -36 -488 3 -323 4 -350 23 -387 27 -53 61 -72 111 -60 56 15 74 48 86 151 13 119 4 697 -11 747 -17 54 -74 85 -130 68z"/>
 <path d="M12812 3615 c-56 -47 -65 -160 -20 -248 34 -68 160 -187 197 -187 8 0 11 61 11 188 0 207 -2 213 -64 251 -45 28 -88 27 -124 -4z"/>
 <path d="M2410 2441 l0 -281 98 0 c121 1 166 11 203 46 46 44 62 115 57 258 -3 105 -7 127 -28 165 -39 71 -74 85 -212 90 l-118 3 0 -281z"/>
 </g>

</svg>