<!DOCTYPE svg PUBLIC "-//W3C//DTD SVG 20010904//EN" "http://www.w3.org/TR/2001/REC-SVG-20010904/DTD/svg10.dtd">
<svg version="1.0" xmlns="http://www.w3.org/2000/svg" width="626px" height="626px" viewBox="0 0 6260 6260" preserveAspectRatio="xMidYMid meet">
<g id="layer1" fill="#ffa500" stroke="none">
 <path d="M255 6238 c-109 -37 -192 -118 -231 -224 l-24 -67 0 -2817 0 -2817 24 -67 c39 -108 123 -187 235 -225 l65 -21 2805 0 c2792 0 2806 0 2871 21 110 34 196 117 236 225 l24 67 0 2817 0 2817 -24 67 c-37 101 -110 176 -214 218 l-57 23 -2825 2 c-2823 1 -2825 1 -2885 -19z m1610 -2408 l0 -1385 -440 0 -439 0 -7 25 c-11 40 -10 2695 1 2724 l10 26 437 -2 438 -3 0 -1385z m1475 520 l5 -865 27 -68 c71 -178 195 -292 368 -338 78 -21 245 -16 322 10 120 40 186 97 243 211 33 65 41 89 62 195 14 69 17 196 22 900 l6 820 434 3 c312 1 438 -1 447 -9 12 -10 14 -139 14 -758 -1 -758 -7 -971 -35 -1142 -73 -457 -329 -776 -710 -887 -105 -30 -122 -33 -230 -42 -250 -19 -461 33 -650 161 -54 36 -150 131 -208 205 -52 67 -89 91 -106 70 -6 -7 -12 -85 -13 -192 l-3 -179 -440 0 -440 0 -5 1380 c-3 759 -4 1383 -2 1388 2 4 202 6 445 5 l442 -3 5 -865z m-1756 -2375 c255 -78 394 -309 329 -548 -9 -34 -25 -74 -35 -89 -10 -14 -18 -30 -18 -35 0 -16 -109 -122 -153 -150 -63 -40 -188 -73 -277 -73 -88 0 -202 29 -268 67 -50 29 -162 130 -162 145 0 5 -8 22 -19 36 -29 42 -54 141 -54 212 1 256 217 457 492 459 63 1 106 -5 165 -24z"/>
 </g>

</svg>