<!DOCTYPE svg PUBLIC "-//W3C//DTD SVG 20010904//EN" "http://www.w3.org/TR/2001/REC-SVG-20010904/DTD/svg10.dtd">
<svg version="1.0" xmlns="http://www.w3.org/2000/svg" width="1600px" height="900px" viewBox="0 0 16000 9000" preserveAspectRatio="xMidYMid meet">
<g id="layer1" fill="#fffefc" stroke="none">
 <path d="M5100 6976 c-144 -32 -239 -116 -297 -262 l-28 -69 -3 -359 c-4 -393 1 -450 47 -550 55 -119 144 -191 277 -222 95 -22 286 -15 366 14 174 63 244 178 255 420 l6 122 -187 0 -186 0 0 -112 c0 -137 -15 -178 -70 -191 -44 -11 -83 3 -107 40 -17 25 -18 59 -18 439 0 401 1 413 21 440 25 34 63 45 108 33 54 -15 66 -53 66 -203 l0 -126 185 0 185 0 0 93 c-1 238 -61 375 -199 450 -96 53 -289 72 -421 43z"/>
 <path d="M6267 6979 c-79 -12 -167 -60 -204 -112 -17 -23 -41 -71 -54 -107 -24 -64 -24 -71 -29 -525 l-5 -460 -67 -3 -68 -3 0 -124 0 -125 70 0 70 0 0 -215 0 -215 190 0 190 0 0 215 0 215 105 0 105 0 0 125 0 125 -105 0 -105 0 0 405 c0 459 1 464 67 492 27 11 57 14 105 11 l68 -5 0 147 0 148 -77 6 c-162 13 -200 14 -256 5z"/>
 <path d="M9458 6980 c-157 -24 -248 -126 -278 -312 -5 -36 -10 -245 -10 -480 l0 -418 -70 0 -70 0 0 -125 0 -125 70 0 70 0 0 -215 0 -215 190 0 190 0 0 215 0 214 108 3 107 3 0 120 0 120 -107 3 -108 3 1 402 c0 284 4 412 12 437 18 53 64 72 155 67 l72 -4 0 147 0 148 -70 6 c-149 13 -207 14 -262 6z"/>
 <path d="M10924 6975 c-157 -34 -264 -139 -311 -305 -16 -57 -18 -106 -18 -420 0 -379 3 -413 52 -517 77 -165 227 -240 463 -230 173 6 275 54 347 161 63 93 76 156 81 394 l4 212 -287 0 -287 0 4 183 c3 162 5 186 23 217 26 44 83 62 123 40 53 -31 64 -59 70 -179 l5 -111 173 0 174 0 0 103 c0 113 -19 212 -52 266 -33 57 -99 121 -150 147 -102 52 -279 69 -414 39z m264 -1007 c-3 -62 -12 -126 -19 -141 -26 -56 -108 -75 -154 -34 -33 28 -44 78 -45 195 l0 92 111 0 112 0 -5 -112z"/>
 <path d="M12035 6976 c-105 -26 -191 -86 -255 -177 -37 -52 -96 -177 -88 -184 6 -5 261 -105 267 -105 4 0 15 21 24 48 22 57 63 118 98 145 15 10 47 22 73 24 42 5 48 3 81 -30 26 -26 35 -43 35 -69 0 -60 -43 -106 -320 -350 -95 -83 -146 -146 -187 -228 -25 -50 -28 -65 -28 -165 0 -101 2 -114 27 -162 77 -145 214 -223 392 -223 212 0 354 105 427 317 10 29 14 55 9 58 -34 21 -235 103 -241 99 -5 -3 -9 -11 -9 -18 0 -27 -62 -136 -91 -161 -68 -56 -179 -15 -179 67 0 50 41 98 228 265 201 180 247 230 286 313 28 59 31 74 31 165 0 87 -3 107 -26 155 -15 30 -43 73 -62 96 -42 48 -150 107 -225 123 -68 14 -203 13 -267 -3z"/>
 <path d="M3380 6949 c0 -11 9 -64 20 -117 11 -53 38 -191 60 -307 23 -115 65 -334 95 -485 29 -151 83 -428 119 -615 37 -187 73 -373 82 -413 l16 -72 226 2 227 3 63 325 c34 179 96 496 137 705 41 209 99 511 130 670 31 160 58 298 61 308 5 16 -9 17 -188 17 l-194 0 -33 -202 c-18 -112 -35 -213 -38 -225 -5 -23 -7 -23 -163 -23 l-158 0 -6 28 c-3 15 -19 110 -36 212 -17 102 -33 191 -35 198 -3 9 -51 12 -195 12 -185 0 -190 -1 -190 -21z m735 -711 c-6 -28 -58 -367 -86 -568 -11 -80 -23 -154 -28 -164 -5 -12 -15 33 -29 130 -38 262 -82 558 -88 592 l-6 32 121 0 c121 0 121 0 116 -22z"/>
 <path d="M6800 6245 l0 -725 190 0 190 0 0 725 0 725 -190 0 -190 0 0 -725z"/>
 <path d="M7602 6868 c-12 -57 -69 -346 -127 -643 -58 -297 -112 -570 -120 -607 -24 -108 -40 -99 168 -96 l182 3 17 130 c9 72 31 236 48 365 17 129 36 276 42 325 20 163 16 181 106 -530 l37 -290 184 -3 183 -2 -5 22 c-7 27 -118 583 -212 1058 -36 184 -68 343 -71 353 -5 15 -24 17 -208 17 l-203 0 -21 -102z"/>
 <path d="M8480 6245 l0 -725 188 2 187 3 0 720 0 720 -187 3 -188 2 0 -725z"/>
 <path d="M9985 6958 c-3 -7 -4 -332 -3 -723 l3 -710 188 -3 187 -2 0 725 0 725 -185 0 c-139 0 -187 -3 -190 -12z"/>
 <path d="M6800 5145 l0 -145 190 0 191 0 -3 143 -3 142 -187 3 -188 2 0 -145z"/>
 <path d="M8480 5145 l0 -145 190 0 191 0 -3 143 -3 142 -187 3 -188 2 0 -145z"/>
 <path d="M9987 5284 c-4 -4 -7 -70 -7 -146 l0 -138 195 0 196 0 -3 143 -3 142 -186 3 c-102 1 -188 -1 -192 -4z"/>
 <path d="M6060 3976 c-168 -36 -285 -161 -320 -341 -8 -41 -10 -177 -8 -425 3 -350 4 -367 25 -425 73 -191 195 -273 423 -282 186 -8 295 28 379 123 89 102 114 197 115 449 l1 190 -287 3 -288 2 0 133 c0 184 12 255 50 290 33 29 64 34 104 15 49 -21 60 -53 64 -176 l4 -112 177 2 176 3 3 48 c2 26 -1 88 -7 138 -28 253 -187 381 -470 378 -47 0 -111 -6 -141 -13z m259 -1015 c-3 -102 -7 -124 -25 -148 -28 -37 -64 -49 -111 -37 -56 13 -73 55 -80 194 l-6 110 113 0 112 0 -3 -119z"/>
 <path d="M7753 3976 c-78 -25 -149 -89 -193 -176 -18 -34 -25 -67 -28 -134 -14 -268 116 -419 481 -562 l99 -38 -4 -119 c-3 -116 -4 -119 -31 -143 -38 -32 -90 -32 -122 0 -27 27 -31 42 -40 139 l-7 67 -96 0 c-53 0 -134 -3 -179 -7 -96 -7 -92 2 -68 -137 45 -256 213 -376 508 -364 136 6 204 29 276 94 57 52 106 140 121 223 6 30 10 234 10 471 0 369 8 563 26 653 l6 27 -170 0 c-133 0 -171 -3 -175 -13 -3 -8 -11 -48 -18 -90 -7 -43 -15 -77 -18 -77 -4 0 -17 21 -30 46 -31 58 -108 127 -159 142 -51 15 -136 14 -189 -2z m317 -295 l35 -28 3 -202 2 -202 -29 15 c-58 31 -140 116 -172 181 -28 57 -31 72 -27 130 8 131 96 181 188 106z"/>
 <path d="M9052 3979 c-165 -25 -254 -128 -282 -324 -5 -38 -10 -253 -10 -477 l0 -408 -70 0 -70 0 0 -125 0 -125 70 0 70 0 0 -215 0 -215 190 0 190 0 0 215 0 215 110 0 110 0 0 125 0 125 -110 0 -110 0 0 400 c0 341 2 405 16 439 22 56 66 75 156 69 l68 -5 0 147 0 148 -77 7 c-162 12 -190 13 -251 4z"/>
 <path d="M9874 3975 c-157 -34 -264 -139 -311 -305 -16 -57 -18 -106 -18 -420 0 -379 3 -413 52 -517 77 -165 227 -240 463 -230 173 6 275 54 347 161 63 93 76 156 81 394 l4 212 -287 0 -287 0 4 183 c3 162 5 186 23 217 26 44 83 62 123 40 53 -31 64 -59 70 -179 l5 -111 173 0 174 0 0 103 c0 113 -19 212 -52 266 -33 57 -99 121 -150 147 -102 52 -279 69 -414 39z m264 -1007 c-3 -62 -12 -126 -19 -141 -26 -56 -108 -75 -154 -34 -33 28 -44 78 -45 195 l0 92 111 0 112 0 -5 -112z"/>
 <path d="M10943 3980 c-113 -27 -192 -123 -227 -277 -23 -104 -24 -787 0 -901 40 -193 154 -302 319 -302 79 0 150 22 215 65 29 19 54 35 56 35 2 0 4 -148 4 -330 l0 -330 190 0 190 0 0 1015 0 1015 -190 0 -190 0 0 -50 0 -50 -61 45 c-33 25 -84 52 -112 60 -53 16 -140 18 -194 5z m332 -264 l35 -15 0 -459 0 -460 -40 -16 c-82 -33 -147 -13 -174 54 -14 35 -16 93 -16 423 0 352 2 385 19 423 11 23 27 47 38 53 26 15 98 13 138 -3z"/>
 <path d="M4325 3958 c-3 -7 -4 -463 -3 -1013 l3 -1000 290 -3 c462 -5 611 24 746 146 98 88 134 199 133 407 -1 151 -15 228 -59 316 -29 56 -101 131 -144 149 -17 7 -31 19 -31 28 0 9 61 230 135 492 74 262 135 479 135 483 0 4 -94 7 -210 7 l-209 0 -10 -37 c-5 -21 -53 -209 -106 -418 -53 -209 -101 -397 -106 -417 l-10 -38 -69 0 -70 0 0 455 0 455 -205 0 c-155 0 -207 -3 -210 -12z m672 -1186 c83 -43 118 -137 111 -293 -10 -196 -81 -259 -293 -259 l-75 0 0 291 0 291 108 -4 c85 -3 116 -8 149 -26z"/>
 <path d="M6917 3963 c-4 -3 -7 -460 -7 -1015 l0 -1008 190 0 190 0 0 1015 0 1015 -183 0 c-101 0 -187 -3 -190 -7z"/>
 </g>
<g id="layer2" fill="#ffa500" stroke="none">
 <path d="M8755 7641 c-102 -18 -204 -71 -286 -148 -45 -44 -46 -44 -115 -43 -67 2 -879 2 -1141 1 -73 -1 -154 -6 -180 -12 -27 -6 -86 -12 -133 -14 -120 -3 -235 -40 -317 -101 -45 -34 -145 -33 -247 1 -50 17 -97 25 -143 25 -41 1 -90 8 -123 20 -37 13 -82 19 -137 20 -45 0 -112 7 -150 16 -41 9 -104 15 -158 13 -49 -1 -119 4 -155 10 -78 15 -149 8 -245 -24 -68 -23 -73 -23 -200 -10 -71 7 -145 18 -163 23 -72 23 -163 24 -247 2 -114 -29 -180 -65 -257 -141 l-68 -67 -39 14 c-21 7 -74 16 -117 20 -43 3 -105 15 -136 25 -32 11 -81 19 -110 19 -31 0 -82 11 -123 25 -38 13 -89 25 -111 25 -23 0 -67 12 -98 26 -32 14 -92 31 -134 36 -42 6 -82 15 -89 20 -21 17 -136 48 -203 54 -145 14 -325 -58 -429 -172 -54 -59 -113 -170 -130 -244 -13 -58 -13 -182 0 -240 19 -82 77 -187 137 -249 l58 -59 -51 -10 c-129 -26 -271 -129 -340 -247 -80 -135 -98 -297 -50 -442 27 -80 83 -169 136 -219 41 -37 120 -94 131 -94 4 0 51 -20 104 -45 52 -25 101 -45 109 -45 26 0 24 -16 -3 -32 -15 -9 -51 -21 -81 -27 -76 -16 -186 -76 -246 -136 -51 -49 -125 -167 -125 -198 0 -20 -35 -27 -147 -32 -154 -6 -281 -60 -383 -165 -65 -67 -107 -145 -131 -248 -54 -225 37 -450 232 -575 73 -46 168 -75 293 -86 56 -6 115 -15 130 -21 15 -5 56 -10 90 -10 35 0 82 -6 104 -14 23 -8 78 -20 124 -27 80 -11 85 -14 141 -66 60 -54 120 -90 192 -113 22 -7 69 -32 105 -56 42 -27 94 -50 145 -64 44 -12 109 -35 144 -52 l64 -29 -21 -20 c-12 -10 -33 -39 -48 -64 -105 -180 -100 -399 15 -579 21 -34 44 -77 52 -96 22 -58 74 -132 126 -181 l50 -47 -81 -20 c-212 -52 -368 -221 -399 -433 -16 -111 0 -219 47 -314 42 -85 111 -165 170 -199 49 -28 142 -42 246 -37 41 2 127 4 190 5 111 1 118 0 185 -32 76 -37 146 -52 241 -52 34 0 81 -7 105 -16 26 -9 89 -17 154 -19 61 -2 132 -8 160 -15 27 -6 77 -10 110 -9 33 2 78 -4 100 -11 25 -9 78 -14 140 -14 107 1 187 23 271 77 48 29 162 41 261 25 87 -13 191 2 290 43 70 30 80 31 147 24 39 -5 103 -10 141 -11 78 -2 180 -19 222 -35 16 -6 91 -13 168 -15 77 -3 174 -12 215 -21 41 -9 113 -17 160 -18 47 -1 110 -7 140 -14 30 -6 93 -11 140 -10 47 1 107 -4 135 -10 27 -7 85 -11 130 -10 47 1 138 -8 220 -21 123 -21 150 -22 226 -13 108 14 202 59 287 138 46 42 67 55 91 55 59 0 176 -23 262 -51 48 -16 108 -29 136 -29 27 0 82 -11 122 -25 89 -30 274 -43 365 -26 88 16 202 75 269 139 l58 56 102 -3 c56 -1 116 -6 132 -11 17 -5 89 -16 162 -25 72 -8 144 -20 159 -25 67 -26 347 -43 489 -30 22 2 94 -2 160 -10 66 -8 152 -14 190 -15 39 -1 93 -7 120 -14 50 -12 87 -14 260 -14 231 -1 235 0 366 48 165 60 242 100 298 157 51 53 72 58 116 27 46 -31 152 -78 193 -85 20 -3 53 -16 72 -28 113 -71 227 -96 365 -79 199 24 362 158 431 354 36 101 38 243 5 339 -29 84 -91 179 -153 235 -58 52 -175 113 -233 121 -22 4 -56 16 -75 29 -19 12 -56 31 -82 41 -27 11 -48 21 -48 24 0 3 13 13 28 22 59 35 166 164 186 224 4 13 30 26 80 42 217 69 368 275 369 502 0 47 -4 101 -10 121 l-11 36 57 13 c113 25 237 112 305 214 74 111 134 287 135 393 1 88 -24 194 -61 265 -35 65 -135 178 -159 178 -11 1 -11 2 1 9 28 16 175 60 255 77 253 53 427 264 428 519 1 179 -100 365 -246 453 -74 44 -182 82 -237 82 -25 0 -73 7 -105 16 -33 8 -102 19 -153 23 -51 5 -98 13 -104 19 -7 7 -6 22 3 49 10 27 14 95 14 236 l0 197 30 9 c17 5 69 12 117 15 203 14 369 121 456 294 56 111 71 216 49 335 -9 48 -30 113 -47 147 -41 81 -147 188 -226 228 -109 55 -251 76 -349 52 -22 -6 -89 -15 -149 -20 -59 -5 -129 -16 -155 -24 -25 -8 -86 -17 -136 -19 -59 -4 -114 -14 -160 -30 -100 -35 -201 -49 -234 -33 -46 23 -134 45 -216 55 -44 6 -99 17 -123 25 -24 9 -73 18 -110 21 -69 6 -165 28 -308 71 -44 13 -88 24 -97 24 -9 0 -47 14 -84 32 -75 35 -164 57 -235 58 -67 0 -180 -26 -238 -55 -39 -20 -64 -25 -123 -25 -40 0 -96 -6 -123 -14 -48 -14 -204 -25 -394 -27 -141 -2 -270 11 -311 32 -20 10 -76 26 -125 35 -49 10 -126 30 -172 46 -54 18 -104 28 -142 28 -32 0 -87 9 -122 20 -34 11 -108 24 -163 29 -55 5 -113 15 -130 21 -16 7 -79 14 -140 16 -60 1 -134 7 -164 13 -58 12 -113 12 -176 2z m-3352 -666 c219 -46 316 -197 317 -492 l0 -93 -185 0 -185 0 0 126 c0 150 -12 188 -66 203 -45 12 -83 1 -108 -33 -20 -27 -21 -39 -21 -440 0 -380 1 -414 18 -439 24 -37 63 -51 107 -40 55 13 70 54 70 191 l0 112 186 0 187 0 -6 -122 c-11 -242 -81 -357 -255 -420 -80 -29 -271 -36 -366 -14 -133 31 -222 103 -277 222 -46 100 -51 157 -47 550 l3 359 28 69 c76 191 208 273 442 275 50 0 121 -6 158 -14z m1120 -1 l77 -6 0 -148 0 -147 -68 5 c-48 3 -78 0 -105 -11 -66 -28 -67 -33 -67 -492 l0 -405 105 0 105 0 0 -125 0 -125 -105 0 -105 0 0 -215 0 -215 -190 0 -190 0 0 215 0 215 -70 0 -70 0 0 125 0 124 68 3 67 3 5 460 c5 454 5 461 29 525 35 94 73 143 142 179 89 48 144 53 372 35z m3197 0 l70 -6 0 -148 0 -147 -72 4 c-91 5 -137 -14 -155 -67 -8 -25 -12 -153 -12 -437 l-1 -402 108 -3 107 -3 0 -120 0 -120 -107 -3 -108 -3 0 -214 0 -215 -190 0 -190 0 0 215 0 215 -70 0 -70 0 0 125 0 125 70 0 70 0 0 418 c0 235 5 444 10 480 23 141 79 231 172 278 82 41 151 47 368 28z m1508 1 c84 -20 149 -55 198 -107 85 -90 114 -176 114 -345 l0 -103 -174 0 -173 0 -5 111 c-6 120 -17 148 -70 179 -40 22 -97 4 -123 -40 -18 -31 -20 -55 -23 -217 l-4 -183 287 0 287 0 -4 -212 c-5 -238 -18 -301 -81 -394 -72 -107 -174 -155 -347 -161 -236 -10 -386 65 -463 230 -49 104 -52 138 -52 517 0 314 2 363 18 420 47 166 154 271 311 305 82 18 227 18 304 0z m1074 4 c75 -16 183 -75 225 -123 19 -23 47 -66 62 -96 23 -48 26 -68 26 -155 0 -91 -3 -106 -31 -165 -39 -83 -85 -133 -286 -313 -187 -167 -228 -215 -228 -265 0 -82 111 -123 179 -67 29 25 91 134 91 161 0 7 4 15 9 18 6 4 207 -78 241 -99 10 -6 -17 -91 -50 -154 -28 -56 -101 -134 -154 -165 -138 -81 -348 -75 -486 14 -60 39 -101 84 -138 153 -25 48 -27 61 -27 162 0 100 3 115 28 165 41 82 92 145 187 228 277 244 320 290 320 350 0 26 -9 43 -35 69 -33 33 -39 35 -81 30 -26 -2 -58 -14 -73 -24 -35 -27 -76 -88 -98 -145 -9 -27 -20 -48 -24 -48 -6 0 -261 100 -267 105 -8 7 51 132 88 184 64 91 150 151 255 177 64 16 199 17 267 3z m-8537 -21 c2 -7 18 -96 35 -198 17 -102 33 -197 36 -212 l6 -28 158 0 c156 0 158 0 163 23 3 12 20 113 38 225 l33 202 194 0 c179 0 193 -1 188 -17 -3 -10 -30 -148 -61 -308 -31 -159 -89 -461 -130 -670 -41 -209 -103 -526 -137 -705 l-63 -325 -227 -3 -226 -2 -16 72 c-9 40 -45 226 -82 413 -36 187 -90 464 -119 615 -30 151 -72 370 -95 485 -22 116 -49 254 -60 307 -32 154 -51 138 170 138 144 0 192 -3 195 -12z m3415 -713 l0 -725 -190 0 -190 0 0 725 0 725 190 0 190 0 0 -725z m854 708 c3 -10 35 -169 71 -353 94 -475 205 -1031 212 -1058 l5 -22 -183 2 -184 3 -37 290 c-70 551 -82 635 -88 628 -4 -5 -12 -48 -18 -98 -6 -49 -25 -196 -42 -325 -17 -129 -39 -293 -48 -365 l-17 -130 -182 -3 c-208 -3 -192 -12 -168 96 8 37 62 310 120 607 58 297 115 586 127 643 l21 102 203 0 c184 0 203 -2 208 -17z m821 -708 l0 -720 -187 -3 -188 -2 0 725 0 725 188 -2 187 -3 0 -720z m1505 0 l0 -725 -187 2 -188 3 -3 710 c-1 391 0 716 3 723 3 9 51 12 190 12 l185 0 0 -725z m-3182 -1102 l3 -143 -191 0 -190 0 0 145 0 145 188 -2 187 -3 3 -142z m1680 0 l3 -143 -191 0 -190 0 0 145 0 145 188 -2 187 -3 3 -142z m1510 0 l3 -143 -196 0 -195 0 0 138 c0 76 3 142 7 146 4 3 90 5 192 4 l186 -3 3 -142z m-4023 -1164 c129 -24 234 -103 286 -214 32 -66 53 -201 47 -292 l-3 -48 -176 -3 -177 -2 -4 112 c-4 123 -15 155 -64 176 -40 19 -71 14 -104 -15 -38 -35 -50 -106 -50 -290 l0 -133 288 -2 287 -3 -1 -190 c-1 -252 -26 -347 -115 -449 -84 -95 -193 -131 -379 -123 -228 9 -350 91 -423 282 -21 58 -22 75 -25 425 -2 248 0 384 8 425 35 180 152 305 320 341 71 16 210 17 285 3z m1597 -1 c51 -15 128 -84 159 -142 13 -25 26 -46 30 -46 3 0 11 34 18 77 7 42 15 82 18 90 4 10 42 13 175 13 l170 0 -6 -27 c-18 -90 -26 -284 -26 -653 0 -237 -4 -441 -10 -471 -15 -83 -64 -171 -121 -223 -72 -65 -140 -88 -276 -94 -295 -12 -463 108 -508 364 -24 139 -28 130 68 137 45 4 126 7 179 7 l96 0 7 -67 c9 -97 13 -112 40 -139 32 -32 84 -32 122 0 27 24 28 27 31 143 l4 119 -99 38 c-296 116 -433 237 -473 417 -19 85 -9 223 20 279 77 151 232 223 382 178z m1361 -3 l77 -7 0 -148 0 -147 -68 5 c-90 6 -134 -13 -156 -69 -14 -34 -16 -98 -16 -439 l0 -400 110 0 110 0 0 -125 0 -125 -110 0 -110 0 0 -215 0 -215 -190 0 -190 0 0 215 0 215 -70 0 -70 0 0 125 0 125 70 0 70 0 0 408 c0 224 5 439 10 477 28 196 117 299 282 324 61 9 89 8 251 -4z m875 0 c84 -20 149 -55 198 -107 85 -90 114 -176 114 -345 l0 -103 -174 0 -173 0 -5 111 c-6 120 -17 148 -70 179 -40 22 -97 4 -123 -40 -18 -31 -20 -55 -23 -217 l-4 -183 287 0 287 0 -4 -212 c-5 -238 -18 -301 -81 -394 -72 -107 -174 -155 -347 -161 -236 -10 -386 65 -463 230 -49 104 -52 138 -52 517 0 314 2 363 18 420 47 166 154 271 311 305 82 18 227 18 304 0z m959 0 c28 -8 79 -35 112 -60 l61 -45 0 50 0 50 190 0 190 0 0 -1015 0 -1015 -190 0 -190 0 0 330 c0 182 -2 330 -4 330 -2 0 -27 -16 -56 -35 -65 -43 -136 -65 -215 -65 -165 0 -279 109 -319 302 -24 114 -23 797 0 901 35 154 114 250 227 277 54 13 141 11 194 -5z m-6397 -460 l0 -455 70 0 69 0 10 38 c5 20 53 208 106 417 53 209 101 397 106 418 l10 37 209 0 c116 0 210 -3 210 -7 0 -4 -61 -221 -135 -483 -74 -262 -135 -483 -135 -492 0 -9 14 -21 31 -28 43 -18 115 -93 144 -149 44 -88 58 -165 59 -316 1 -208 -35 -319 -133 -407 -135 -122 -284 -151 -746 -146 l-290 3 -3 1000 c-1 550 0 1006 3 1013 3 9 55 12 210 12 l205 0 0 -455z m2550 -560 l0 -1015 -190 0 -190 0 0 1008 c0 555 3 1012 7 1015 3 4 89 7 190 7 l183 0 0 -1015z"/>
 <path d="M10970 5988 c1 -117 12 -167 45 -195 46 -41 128 -22 154 34 7 15 16 79 19 141 l5 112 -112 0 -111 0 0 -92z"/>
 <path d="M3884 6228 c6 -34 50 -330 88 -592 14 -97 24 -142 29 -130 5 10 17 84 28 164 28 201 80 540 86 568 5 22 5 22 -116 22 l-121 0 6 -32z"/>
 <path d="M6103 2970 c7 -139 24 -181 80 -194 47 -12 83 0 111 37 18 24 22 46 25 148 l3 119 -112 0 -113 0 6 -110z"/>
 <path d="M7951 3708 c-44 -24 -65 -63 -69 -133 -4 -58 -1 -73 27 -130 32 -65 114 -150 172 -181 l29 -15 -2 202 -3 202 -35 28 c-42 34 -86 44 -119 27z"/>
 <path d="M9920 2988 c1 -117 12 -167 45 -195 46 -41 128 -22 154 34 7 15 16 79 19 141 l5 112 -112 0 -111 0 0 -92z"/>
 <path d="M11137 3719 c-11 -6 -27 -30 -38 -53 -17 -38 -19 -71 -19 -423 0 -330 2 -388 16 -423 27 -67 92 -87 174 -54 l40 16 0 460 0 459 -35 15 c-40 16 -112 18 -138 3z"/>
 <path d="M4740 2511 l0 -291 75 0 c212 0 283 63 293 259 3 74 0 112 -13 156 -36 124 -85 157 -247 163 l-108 4 0 -291z"/>
 </g>

</svg>