<!DOCTYPE svg PUBLIC "-//W3C//DTD SVG 20010904//EN" "http://www.w3.org/TR/2001/REC-SVG-20010904/DTD/svg10.dtd">
<svg version="1.0" xmlns="http://www.w3.org/2000/svg" width="1600px" height="900px" viewBox="0 0 16000 9000" preserveAspectRatio="xMidYMid meet">
<g id="layer1" fill="#fffefc" stroke="none">
 <path d="M2715 6909 c-256 -43 -402 -211 -436 -504 -7 -57 -9 -275 -7 -590 4 -472 5 -504 25 -576 64 -230 185 -344 409 -384 112 -21 270 -16 369 10 169 44 275 149 330 325 12 39 18 106 22 233 l6 177 -202 0 -201 0 0 -147 c0 -82 -5 -167 -10 -191 -20 -85 -67 -122 -157 -122 -67 0 -120 32 -146 88 -22 47 -22 53 -22 642 0 550 1 599 18 647 27 76 61 98 154 98 61 0 75 -3 97 -24 51 -48 59 -82 64 -273 l4 -178 201 0 200 0 -6 178 c-6 197 -16 247 -73 359 -63 125 -168 197 -328 228 -83 16 -230 18 -311 4z"/>
 <path d="M3993 6910 c-173 -32 -294 -137 -343 -299 -20 -64 -21 -89 -18 -462 3 -383 4 -396 26 -450 52 -129 126 -201 255 -247 99 -35 277 -37 382 -5 163 51 255 155 290 330 14 68 16 136 13 429 -4 327 -5 353 -26 414 -62 186 -208 286 -431 295 -53 2 -119 0 -148 -5z m161 -264 c63 -26 66 -47 66 -475 0 -382 -3 -424 -38 -463 -21 -25 -76 -33 -113 -17 -61 25 -64 44 -67 441 -4 437 3 490 73 519 29 11 42 11 79 -5z"/>
 <path d="M5003 6909 c-56 -13 -125 -76 -154 -141 l-24 -53 -3 -638 -3 -637 188 2 188 3 5 583 5 584 25 20 c29 24 78 21 137 -8 l38 -19 5 -580 5 -580 188 -3 187 -2 0 725 0 725 -190 0 -189 0 -3 -60 -3 -60 -60 45 c-107 80 -242 118 -342 94z"/>
 <path d="M7251 6909 c-81 -14 -179 -65 -236 -123 -55 -55 -143 -212 -133 -237 3 -8 61 -37 129 -64 68 -28 127 -51 130 -53 4 -2 15 19 24 46 23 65 63 122 104 149 79 54 181 11 181 -75 0 -64 -39 -108 -271 -308 -131 -114 -189 -181 -231 -270 -30 -63 -33 -77 -33 -164 0 -88 3 -101 33 -162 79 -161 266 -249 464 -220 147 22 257 106 324 247 57 120 59 117 -82 179 l-122 54 -11 -37 c-17 -55 -63 -132 -92 -153 -14 -11 -44 -22 -67 -25 -38 -5 -45 -2 -77 30 -21 21 -35 45 -35 59 0 47 59 115 240 277 258 232 313 315 312 471 0 223 -163 373 -417 385 -44 2 -104 0 -134 -6z"/>
 <path d="M8323 6910 c-197 -36 -317 -154 -357 -352 -23 -111 -23 -665 0 -775 43 -212 172 -330 386 -355 181 -21 336 20 424 114 94 101 124 215 124 474 l0 174 -285 0 -285 0 0 168 c0 92 5 184 10 204 13 47 52 78 97 78 77 0 101 -42 110 -191 l6 -99 174 0 173 0 0 96 c0 243 -90 385 -280 445 -75 23 -219 33 -297 19z m220 -1007 c-1 -114 -14 -166 -46 -188 -24 -17 -89 -20 -116 -5 -34 18 -51 83 -51 196 l0 105 108 -3 107 -3 -2 -102z"/>
 <path d="M10953 6910 c-119 -22 -220 -79 -278 -158 -19 -26 -47 -83 -62 -127 l-28 -80 0 -365 c0 -392 3 -422 53 -530 29 -63 101 -139 158 -168 82 -42 153 -56 279 -56 97 1 133 5 185 23 135 46 229 139 272 270 20 61 22 90 26 409 3 287 1 356 -13 425 -34 176 -126 285 -284 337 -73 24 -228 34 -308 20z m161 -264 c60 -25 61 -36 61 -481 0 -385 -1 -401 -20 -435 -39 -66 -136 -64 -173 4 -15 28 -17 73 -17 431 0 442 2 456 59 481 40 17 49 17 90 0z"/>
 <path d="M6052 6168 l3 -723 185 0 185 0 3 109 3 108 48 -69 c83 -117 157 -166 244 -161 l52 3 3 171 2 172 -77 -1 c-96 -1 -154 25 -226 102 l-47 50 0 481 0 480 -190 0 -190 0 2 -722z"/>
 <path d="M9266 6848 c-4 -24 -20 -131 -36 -238 -16 -107 -45 -302 -64 -432 -90 -598 -106 -707 -106 -722 0 -14 19 -16 150 -16 147 0 151 1 160 23 4 12 18 99 30 192 24 190 66 516 76 585 11 72 9 80 105 -570 16 -113 32 -211 34 -217 3 -10 40 -13 139 -13 l134 0 6 28 c4 15 17 113 31 217 63 479 76 570 82 594 4 16 30 -138 68 -404 l61 -430 149 -3 148 -3 -7 58 c-3 32 -18 130 -32 218 -13 88 -36 230 -49 315 -29 186 -65 414 -100 645 -14 94 -28 180 -31 193 -4 22 -5 22 -166 20 l-162 -3 -17 -105 c-9 -58 -38 -233 -63 -390 -26 -157 -50 -294 -54 -304 -6 -13 -15 19 -29 105 -29 167 -102 581 -114 647 l-10 52 -163 0 -163 0 -7 -42z"/>
 <path d="M11792 6168 l3 -723 185 0 185 0 5 109 5 108 49 -71 c76 -112 151 -161 246 -161 l50 0 0 174 0 174 -72 -1 c-98 -1 -161 27 -228 100 l-50 55 0 479 0 479 -190 0 -190 0 2 -722z"/>
 <path d="M12690 5880 l0 -1010 190 0 190 0 0 562 0 562 176 -277 175 -277 205 0 c138 0 204 3 204 11 0 6 -81 139 -180 296 -178 283 -179 285 -166 317 42 100 161 382 247 583 54 128 99 235 99 238 0 3 -91 5 -202 5 l-203 0 -39 -108 c-21 -59 -67 -186 -102 -282 -36 -96 -74 -201 -85 -232 -12 -32 -25 -58 -29 -58 -5 0 -29 29 -54 64 l-46 65 0 275 0 276 -190 0 -190 0 0 -1010z"/>
 <path d="M5573 3910 c-197 -36 -317 -154 -357 -352 -23 -111 -23 -665 0 -775 43 -212 172 -330 386 -355 181 -21 336 20 424 114 94 101 124 215 124 474 l0 174 -285 0 -285 0 0 168 c0 92 5 184 10 204 13 47 52 78 97 78 77 0 101 -42 110 -191 l6 -99 174 0 173 0 0 96 c0 243 -90 385 -280 445 -75 23 -219 33 -297 19z m220 -1007 c-1 -114 -14 -166 -46 -188 -24 -17 -89 -20 -116 -5 -34 18 -51 83 -51 196 l0 105 108 -3 107 -3 -2 -102z"/>
 <path d="M7395 3913 c-16 -2 -57 -13 -91 -24 -155 -50 -243 -153 -279 -327 -21 -96 -21 -688 0 -785 43 -205 170 -322 377 -348 219 -28 402 38 481 174 56 96 70 166 75 385 l4 202 -286 0 -286 0 0 175 c0 230 16 275 99 275 84 0 111 -45 111 -189 l0 -101 180 0 180 0 0 93 c0 109 -26 225 -63 284 -38 59 -122 130 -182 152 -92 35 -216 48 -320 34z m205 -1013 c0 -159 -22 -200 -105 -200 -83 0 -105 41 -105 200 l0 110 105 0 105 0 0 -110z"/>
 <path d="M9434 3911 c-103 -26 -197 -110 -233 -207 -28 -75 -29 -207 -1 -297 36 -117 138 -225 280 -298 25 -12 97 -44 160 -69 l115 -47 3 -89 c5 -155 -13 -194 -91 -194 -67 0 -87 28 -100 139 l-10 91 -156 -6 c-219 -7 -205 -2 -197 -77 26 -235 117 -356 311 -413 83 -24 269 -25 346 -1 114 34 198 116 242 234 20 56 21 78 27 578 4 286 9 527 12 535 4 8 9 34 12 58 l6 42 -172 -2 -173 -3 -13 -75 c-18 -107 -20 -109 -42 -64 -31 63 -78 113 -131 139 -53 27 -144 39 -195 26z m248 -280 c13 -5 35 -21 51 -36 l27 -26 0 -194 c0 -107 -4 -195 -9 -195 -19 0 -120 84 -154 129 -66 86 -84 179 -51 261 24 59 79 84 136 61z"/>
 <path d="M11909 3897 c-141 -40 -209 -131 -239 -317 -5 -37 -10 -243 -10 -472 l0 -407 -67 -3 -68 -3 0 -125 0 -125 68 -3 67 -3 0 -214 0 -215 190 0 190 0 0 215 0 214 108 3 107 3 0 125 0 125 -107 3 -108 3 0 392 c0 230 4 407 10 428 17 61 40 74 141 77 l89 4 0 143 c0 127 -2 144 -17 150 -37 14 -306 16 -354 2z"/>
 <path d="M3800 2879 l0 -1011 373 4 c405 5 424 7 554 68 172 80 243 219 243 476 0 223 -48 353 -162 439 -32 24 -62 45 -69 47 -6 2 18 102 66 273 42 149 101 358 131 465 30 107 59 207 64 223 l9 27 -212 0 -213 0 -89 -352 c-49 -194 -101 -398 -115 -453 l-25 -100 -70 0 -70 0 -3 453 -2 452 -205 0 -205 0 0 -1011z m665 -179 c55 -27 99 -88 111 -153 4 -23 7 -80 7 -125 -2 -208 -68 -272 -280 -272 l-93 0 0 283 c0 156 3 287 8 291 4 5 50 6 103 4 73 -4 107 -10 144 -28z"/>
 <path d="M6390 2880 l0 -1010 190 0 190 0 0 1010 0 1010 -190 0 -190 0 0 -1010z"/>
 <path d="M8347 3813 c-9 -43 -53 -265 -97 -493 -45 -228 -101 -516 -126 -639 -26 -128 -41 -228 -36 -233 5 -5 87 -7 183 -6 l174 3 7 50 c4 28 24 174 43 325 51 390 73 552 78 556 5 5 12 -44 72 -531 25 -198 48 -370 50 -382 5 -23 7 -23 180 -23 95 0 176 4 179 8 5 8 -32 198 -207 1077 l-72 360 -206 3 -206 2 -16 -77z"/>
 <path d="M10382 3168 l3 -723 185 0 185 0 3 67 3 67 62 -47 c134 -102 299 -138 398 -87 49 26 97 91 118 160 20 65 21 89 21 676 l0 609 -190 0 -190 0 0 -570 0 -571 -25 -24 c-31 -32 -74 -32 -142 0 l-53 24 0 571 0 570 -190 0 -190 0 2 -722z"/>
 </g>
<g id="layer2" fill="#ffa500" stroke="none">
 <path d="M10470 7890 c-19 -5 -168 -7 -330 -6 -250 2 -308 0 -380 -15 -56 -12 -172 -21 -345 -28 -143 -5 -269 -11 -280 -11 -11 -1 -76 -3 -145 -5 -69 -1 -264 -6 -435 -11 -335 -8 -2047 -10 -2235 -2 -63 3 -200 8 -305 12 -104 4 -206 11 -225 16 -19 4 -114 11 -210 15 -96 3 -193 11 -214 17 -24 6 -231 10 -520 10 -470 1 -482 0 -538 -21 -122 -47 -223 -164 -253 -295 -10 -44 -15 -51 -47 -62 -123 -42 -243 -200 -255 -335 l-6 -56 -131 -7 c-72 -3 -377 -6 -677 -6 -517 0 -549 -1 -610 -20 -80 -24 -145 -66 -202 -130 -53 -58 -72 -97 -95 -187 l-17 -68 -110 0 c-102 0 -115 -2 -176 -31 -162 -77 -271 -277 -241 -442 l9 -50 -51 -33 c-69 -46 -137 -134 -165 -214 -20 -56 -23 -79 -19 -163 4 -72 11 -110 28 -147 23 -51 70 -119 101 -145 15 -13 17 -26 12 -82 l-6 -67 -61 5 c-33 3 -88 12 -121 19 -94 22 -234 29 -301 15 -199 -41 -344 -217 -344 -420 0 -208 147 -386 348 -421 32 -6 91 -21 132 -35 41 -13 98 -24 125 -24 28 0 79 -7 115 -17 l65 -16 2 -66 c0 -36 6 -78 12 -93 10 -27 10 -28 -27 -28 -20 0 -55 -5 -77 -11 -45 -13 -98 -16 -380 -23 -252 -6 -271 -9 -347 -47 -142 -72 -238 -226 -238 -384 0 -208 162 -395 364 -424 36 -5 70 -12 76 -16 7 -4 53 -11 103 -16 51 -5 130 -14 177 -18 47 -5 107 -16 134 -25 27 -9 70 -16 96 -16 26 0 69 -7 96 -15 27 -8 73 -15 102 -15 29 0 63 -5 75 -12 12 -6 74 -15 137 -20 63 -4 160 -12 215 -18 55 -5 145 -14 200 -19 55 -6 118 -15 140 -20 22 -6 57 -11 77 -11 20 0 62 -6 92 -14 37 -10 109 -15 209 -15 181 0 250 -15 117 -24 -47 -4 -123 -8 -170 -10 -47 -3 -186 -12 -310 -22 -124 -9 -259 -18 -300 -20 -41 -2 -93 -9 -115 -14 -22 -5 -78 -10 -125 -11 -86 -1 -235 -6 -390 -14 -214 -10 -299 -18 -344 -31 -27 -8 -68 -15 -90 -15 -201 -1 -388 -166 -417 -364 -20 -141 23 -277 117 -370 49 -48 140 -106 166 -106 8 0 36 -11 62 -25 70 -37 159 -65 209 -65 24 0 70 -9 102 -20 32 -11 82 -20 111 -20 29 0 65 -5 81 -11 15 -6 69 -14 118 -19 50 -5 111 -15 137 -22 42 -11 47 -16 53 -46 16 -86 110 -226 178 -263 8 -5 79 -9 158 -10 117 -2 154 1 194 16 48 17 222 18 3965 21 2153 1 3926 3 3939 3 16 1 21 5 17 16 -7 19 13 23 134 29 120 5 276 13 405 20 55 3 138 7 185 9 47 3 139 10 205 16 66 6 167 16 225 21 58 5 148 14 200 19 52 6 190 17 305 26 386 28 430 32 458 44 16 6 52 11 80 11 29 0 68 5 87 11 34 11 117 21 315 38 55 5 114 14 130 19 17 6 63 13 103 16 41 4 99 15 130 27 31 11 82 28 112 38 73 23 125 57 182 118 108 117 143 269 97 419 -22 73 -43 108 -93 161 l-30 33 52 0 c155 0 289 73 381 207 55 81 78 248 46 338 -8 21 -13 40 -12 42 5 4 73 3 159 -3 76 -6 98 -3 159 16 95 31 179 94 229 172 48 74 60 111 67 208 9 129 -26 226 -114 321 l-43 47 62 4 c35 3 75 1 90 -3 15 -4 104 -7 199 -7 139 0 183 3 231 18 306 95 399 493 168 720 -53 52 -110 81 -250 126 -207 66 -190 58 -155 76 91 48 180 167 205 276 14 59 9 184 -9 244 -18 58 -91 160 -144 198 l-47 35 67 6 c233 23 393 199 393 433 0 187 -120 348 -303 405 -59 18 -95 21 -285 22 -273 1 -419 5 -481 14 l-48 7 -5 81 c-4 62 -13 98 -35 148 l-30 65 29 35 c98 117 130 256 92 402 -44 169 -172 278 -381 321 -45 10 -113 17 -150 17 -37 0 -387 2 -778 4 -390 2 -723 0 -740 -3 -16 -4 -48 -5 -70 -2 -22 3 -65 1 -95 -3 -74 -11 -121 -9 -140 7 -57 50 -150 83 -240 87 -25 1 -65 8 -90 17 -25 8 -110 19 -190 24 -80 5 -170 11 -200 13 -65 4 -266 22 -330 29 -25 3 -61 1 -80 -4z m-7444 -985 c160 -31 265 -103 328 -228 57 -112 67 -162 73 -359 l6 -178 -200 0 -201 0 -4 178 c-5 191 -13 225 -64 273 -22 21 -36 24 -97 24 -93 0 -127 -22 -154 -98 -17 -48 -18 -97 -18 -647 0 -589 0 -595 22 -642 26 -56 79 -88 146 -88 90 0 137 37 157 122 5 24 10 109 10 191 l0 147 201 0 202 0 -6 -177 c-4 -127 -10 -194 -22 -233 -55 -176 -161 -281 -330 -325 -99 -26 -257 -31 -369 -10 -224 40 -345 154 -409 384 -20 72 -21 104 -25 576 -2 315 0 533 7 590 34 293 180 461 436 504 81 14 228 12 311 -4z m1278 -16 c132 -44 224 -135 268 -269 21 -61 22 -87 26 -414 3 -293 1 -361 -13 -429 -35 -175 -127 -279 -290 -330 -105 -32 -283 -30 -382 5 -129 46 -203 118 -255 247 -22 54 -23 67 -26 450 -3 373 -2 398 18 462 49 162 170 267 343 299 82 14 234 4 311 -21z m920 -5 c34 -13 88 -45 121 -69 l60 -45 3 60 3 60 189 0 190 0 0 -725 0 -725 -187 2 -188 3 -5 580 -5 580 -38 19 c-59 29 -108 32 -137 8 l-25 -20 -5 -584 -5 -583 -188 -3 -188 -2 3 637 3 638 24 53 c29 65 98 128 154 141 59 14 150 4 221 -25z m2303 8 c174 -55 275 -187 275 -362 1 -156 -54 -239 -312 -471 -181 -162 -240 -230 -240 -277 0 -14 14 -38 35 -59 32 -32 39 -35 77 -30 23 3 53 14 67 25 29 21 75 98 92 153 l11 37 122 -54 c141 -62 139 -59 82 -179 -67 -141 -177 -225 -324 -247 -198 -29 -385 59 -464 220 -30 61 -33 74 -33 162 0 87 3 101 33 164 42 89 100 156 231 270 232 200 271 244 271 308 0 86 -102 129 -181 75 -41 -27 -81 -84 -104 -149 -9 -27 -20 -48 -24 -46 -3 2 -62 25 -130 53 -68 27 -126 56 -129 64 -10 25 78 182 133 237 57 58 155 109 236 123 76 14 203 6 276 -17z m1093 -1 c190 -60 280 -202 280 -445 l0 -96 -173 0 -174 0 -6 99 c-9 149 -33 191 -110 191 -45 0 -84 -31 -97 -78 -5 -20 -10 -112 -10 -204 l0 -168 285 0 285 0 0 -174 c0 -259 -30 -373 -124 -474 -88 -94 -243 -135 -424 -114 -214 25 -343 143 -386 355 -23 110 -23 664 0 775 40 198 160 316 357 352 78 14 222 4 297 -19z m2641 -1 c158 -52 250 -161 284 -337 14 -69 16 -138 13 -425 -4 -319 -6 -348 -26 -409 -43 -131 -137 -224 -272 -270 -52 -18 -88 -22 -185 -23 -126 0 -197 14 -279 56 -57 29 -129 105 -158 168 -50 108 -53 138 -53 530 l0 365 28 80 c71 207 229 301 488 290 62 -3 120 -12 160 -25z m-4831 -480 l0 -481 47 -50 c72 -77 130 -103 226 -102 l77 1 -2 -172 -3 -171 -52 -3 c-87 -5 -161 44 -244 161 l-48 69 -3 -108 -3 -109 -185 0 -185 0 -3 723 -2 722 190 0 190 0 0 -480z m3179 428 c12 -66 85 -480 114 -647 14 -86 23 -118 29 -105 4 10 28 147 54 304 25 157 54 332 63 390 l17 105 162 3 c161 2 162 2 166 -20 3 -13 17 -99 31 -193 35 -231 71 -459 100 -645 13 -85 36 -227 49 -315 14 -88 29 -186 32 -218 l7 -58 -148 3 -149 3 -61 430 c-38 266 -64 420 -68 404 -6 -24 -19 -115 -82 -594 -14 -104 -27 -202 -31 -217 l-6 -28 -134 0 c-99 0 -136 3 -139 13 -2 6 -18 104 -34 217 -68 458 -83 556 -90 585 -8 29 -8 29 -15 -15 -10 -69 -52 -395 -76 -585 -12 -93 -26 -180 -30 -192 -9 -22 -13 -23 -160 -23 -131 0 -150 2 -150 16 0 15 16 124 106 722 19 130 48 325 64 432 16 107 32 214 36 238 l7 42 163 0 163 0 10 -52z m2561 -427 l0 -479 50 -55 c67 -73 130 -101 228 -100 l72 1 0 -174 0 -174 -50 0 c-95 0 -170 49 -246 161 l-49 71 -5 -108 -5 -109 -185 0 -185 0 -3 723 -2 722 190 0 190 0 0 -479z m900 203 l0 -275 46 -65 c25 -35 49 -64 54 -64 4 0 17 26 29 58 11 31 49 136 85 232 35 96 81 223 102 282 l39 108 203 0 c111 0 202 -2 202 -5 0 -3 -45 -110 -99 -238 -86 -201 -205 -483 -247 -583 -13 -32 -12 -34 166 -317 99 -157 180 -290 180 -296 0 -8 -66 -11 -204 -11 l-205 0 -175 277 -176 277 0 -562 0 -562 -190 0 -190 0 0 1010 0 1010 190 0 190 0 0 -276z m-7200 -2723 c190 -60 280 -202 280 -445 l0 -96 -173 0 -174 0 -6 99 c-9 149 -33 191 -110 191 -45 0 -84 -31 -97 -78 -5 -20 -10 -112 -10 -204 l0 -168 285 0 285 0 0 -174 c0 -259 -30 -373 -124 -474 -88 -94 -243 -135 -424 -114 -214 25 -343 143 -386 355 -23 110 -23 664 0 775 40 198 160 316 357 352 78 14 222 4 297 -19z m1728 19 c133 -22 237 -86 299 -183 37 -59 63 -175 63 -284 l0 -93 -180 0 -180 0 0 101 c0 144 -27 189 -111 189 -83 0 -99 -45 -99 -275 l0 -175 286 0 286 0 -4 -202 c-4 -176 -8 -212 -28 -273 -58 -182 -160 -264 -353 -287 -242 -29 -434 57 -514 229 -46 100 -53 163 -53 513 0 344 7 410 50 506 80 181 292 273 538 234z m2031 -25 c53 -26 100 -76 131 -139 22 -45 24 -43 42 64 l13 75 173 3 172 2 -6 -42 c-3 -24 -8 -50 -12 -58 -3 -8 -8 -249 -12 -535 -6 -500 -7 -522 -27 -578 -44 -118 -128 -200 -242 -234 -77 -24 -263 -23 -346 1 -194 57 -285 178 -311 413 -8 75 -22 70 197 77 l156 6 10 -91 c13 -111 33 -139 100 -139 78 0 96 39 91 194 l-3 89 -115 47 c-63 25 -135 57 -160 69 -142 73 -244 181 -280 298 -28 90 -27 222 1 297 36 97 130 181 233 207 51 13 142 1 195 -26z m2634 10 c15 -6 17 -23 17 -150 l0 -143 -89 -4 c-101 -3 -124 -16 -141 -77 -6 -21 -10 -198 -10 -428 l0 -392 108 -3 107 -3 0 -125 0 -125 -107 -3 -108 -3 0 -214 0 -215 -190 0 -190 0 0 215 0 214 -67 3 -68 3 0 125 0 125 68 3 67 3 0 407 c0 229 5 435 10 472 30 186 98 277 239 317 48 14 317 12 354 -2z m-8051 -457 l3 -453 70 0 70 0 25 100 c14 55 66 259 115 453 l89 352 213 0 212 0 -9 -27 c-5 -16 -34 -116 -64 -223 -30 -107 -89 -316 -131 -465 -48 -171 -72 -271 -66 -273 7 -2 37 -23 69 -47 114 -86 162 -216 162 -439 0 -257 -71 -396 -243 -476 -130 -61 -149 -63 -554 -68 l-373 -4 0 1011 0 1011 205 0 205 0 2 -452z m2558 -558 l0 -1010 -190 0 -190 0 0 1010 0 1010 190 0 190 0 0 -1010z m2077 645 c175 -879 212 -1069 207 -1077 -3 -4 -84 -8 -179 -8 -173 0 -175 0 -180 23 -2 12 -25 184 -50 382 -60 487 -67 536 -72 531 -5 -4 -27 -166 -78 -556 -19 -151 -39 -297 -43 -325 l-7 -50 -174 -3 c-96 -1 -178 1 -183 6 -5 5 10 105 36 233 25 123 81 411 126 639 44 228 88 450 97 493 l16 77 206 -2 206 -3 72 -360z m1913 -205 l0 -571 53 -24 c68 -32 111 -32 142 0 l25 24 0 571 0 570 190 0 190 0 0 -609 c0 -587 -1 -611 -21 -676 -21 -69 -69 -134 -118 -160 -99 -51 -264 -15 -398 87 l-62 47 -3 -67 -3 -67 -185 0 -185 0 -3 723 -2 722 190 0 190 0 0 -570z"/>
 <path d="M4075 6651 c-70 -29 -77 -82 -73 -519 3 -397 6 -416 67 -441 37 -16 92 -8 113 17 35 39 38 81 38 463 0 428 -3 449 -66 475 -37 16 -50 16 -79 5z"/>
 <path d="M8330 5906 c0 -113 17 -178 51 -196 27 -15 92 -12 116 5 32 22 45 74 46 188 l2 102 -107 3 -108 3 0 -105z"/>
 <path d="M11024 6646 c-57 -25 -59 -39 -59 -481 0 -358 2 -403 17 -431 37 -68 134 -70 173 -4 19 34 20 50 20 435 0 445 -1 456 -61 481 -41 17 -50 17 -90 0z"/>
 <path d="M5580 2906 c0 -113 17 -178 51 -196 27 -15 92 -12 116 5 32 22 45 74 46 188 l2 102 -107 3 -108 3 0 -105z"/>
 <path d="M7390 2900 c0 -159 22 -200 105 -200 83 0 105 41 105 200 l0 110 -105 0 -105 0 0 -110z"/>
 <path d="M9589 3625 c-32 -18 -59 -80 -59 -139 0 -93 59 -193 158 -266 30 -22 58 -40 63 -40 5 0 9 88 9 195 l0 194 -27 26 c-49 46 -96 56 -144 30z"/>
 <path d="M4218 2724 c-5 -4 -8 -135 -8 -291 l0 -283 93 0 c212 0 278 64 280 272 0 111 -9 158 -43 211 -41 64 -97 89 -219 95 -53 2 -99 1 -103 -4z"/>
 </g>

</svg>