<!DOCTYPE svg PUBLIC "-//W3C//DTD SVG 20010904//EN" "http://www.w3.org/TR/2001/REC-SVG-20010904/DTD/svg10.dtd">
<svg version="1.0" xmlns="http://www.w3.org/2000/svg" width="1600px" height="900px" viewBox="0 0 16000 9000" preserveAspectRatio="xMidYMid meet">
<g id="layer1" fill="#fffefc" stroke="none">
 <path d="M5731 5444 c-132 -28 -238 -103 -306 -213 -43 -72 -84 -213 -92 -317 -5 -74 -4 -82 13 -87 45 -13 243 -47 289 -49 l50 -3 7 81 c9 117 33 190 78 237 34 37 42 41 99 45 74 5 104 -11 132 -71 31 -69 22 -168 -23 -265 -27 -57 -143 -175 -338 -344 -80 -68 -164 -149 -187 -179 -164 -213 -165 -557 -2 -734 170 -185 546 -219 744 -68 95 72 166 226 180 389 l7 81 -172 27 c-94 15 -173 26 -175 24 -2 -2 -8 -45 -14 -97 -14 -112 -28 -148 -72 -185 -29 -25 -39 -28 -86 -24 -164 14 -190 240 -45 400 20 23 100 96 177 163 250 219 339 328 391 481 32 94 43 247 24 337 -37 182 -176 323 -365 372 -73 19 -227 18 -314 -1z"/>
 <path d="M10180 5453 c-158 -26 -278 -121 -352 -279 -22 -47 -38 -88 -35 -90 7 -8 250 -104 261 -104 6 0 28 36 49 80 46 97 86 130 160 130 40 0 54 -5 78 -29 21 -21 29 -39 29 -63 -1 -63 -41 -110 -236 -279 -168 -144 -228 -212 -272 -307 -24 -51 -27 -69 -27 -162 1 -126 18 -173 95 -254 96 -101 241 -147 399 -125 94 13 174 53 238 118 69 70 150 242 120 254 -7 3 -63 28 -125 56 -76 34 -114 46 -117 38 -43 -143 -123 -222 -201 -203 -37 10 -74 54 -74 88 0 59 25 89 228 271 225 203 263 248 302 354 31 85 25 203 -13 283 -30 63 -92 130 -153 166 -82 48 -248 75 -354 57z"/>
 <path d="M6610 4420 l0 -1010 190 0 190 0 0 563 c1 533 2 561 18 540 9 -12 88 -134 175 -272 l158 -251 211 0 210 0 -23 38 c-13 20 -92 147 -177 281 -85 134 -156 250 -159 258 -3 7 22 77 55 156 33 78 106 250 162 382 56 132 110 259 121 283 l18 42 -206 -2 -205 -3 -55 -150 c-30 -82 -83 -229 -118 -325 -35 -96 -66 -183 -70 -193 -6 -14 -18 -4 -61 55 l-54 72 0 273 0 273 -190 0 -190 0 0 -1010z"/>
 <path d="M7900 4710 l0 -720 190 0 190 0 0 720 0 720 -190 0 -190 0 0 -720z"/>
 <path d="M8560 4420 l0 -1010 190 0 190 0 0 1010 0 1010 -190 0 -190 0 0 -1010z"/>
 <path d="M9220 4420 l0 -1010 190 0 190 0 0 1010 0 1010 -190 0 -190 0 0 -1010z"/>
 <path d="M7900 3605 l0 -145 190 0 190 0 0 145 0 145 -190 0 -190 0 0 -145z"/>
 </g>
<g id="layer2" fill="#ffa500" stroke="none">
 <path d="M10114 6516 c-22 -7 -75 -14 -116 -14 -42 -1 -88 -6 -103 -12 -14 -5 -50 -10 -79 -10 -28 0 -78 -7 -109 -15 -32 -8 -79 -15 -105 -15 -26 0 -74 -7 -105 -15 -32 -8 -79 -15 -105 -15 -26 0 -72 -7 -102 -15 -30 -8 -78 -15 -106 -15 -28 0 -74 -7 -104 -16 -29 -8 -61 -14 -70 -11 -10 3 -55 -2 -101 -9 -46 -7 -107 -14 -135 -14 -28 0 -74 -7 -104 -16 -29 -8 -60 -14 -70 -11 -9 2 -45 0 -81 -5 -35 -5 -104 -10 -154 -12 -49 -2 -103 -9 -118 -15 -16 -6 -54 -11 -86 -11 -31 0 -83 -7 -114 -15 -32 -8 -80 -15 -106 -15 -26 0 -70 -7 -97 -15 -27 -9 -80 -18 -119 -21 -38 -3 -83 -9 -99 -15 -16 -5 -55 -9 -86 -9 -31 0 -79 -7 -106 -15 -27 -8 -72 -15 -99 -15 -28 0 -75 -6 -105 -14 -30 -7 -78 -14 -107 -14 -28 -1 -70 -6 -92 -12 -23 -6 -60 -10 -84 -9 -84 4 -293 -13 -346 -28 -30 -8 -62 -12 -71 -10 -10 2 -42 0 -71 -4 -30 -5 -127 -10 -215 -10 -142 -1 -169 1 -218 20 -31 12 -77 21 -102 21 -24 0 -69 9 -99 19 -31 11 -81 23 -113 26 -31 4 -86 15 -121 26 -35 10 -78 19 -97 19 -18 0 -59 7 -91 15 -31 8 -80 15 -109 15 -28 0 -71 7 -95 15 -24 9 -80 19 -125 24 -45 5 -87 12 -94 16 -7 4 -56 12 -109 16 -213 20 -268 28 -316 44 -35 12 -72 15 -125 12 -223 -13 -392 -181 -408 -405 -13 -199 119 -389 305 -436 l46 -12 19 -73 c10 -41 30 -93 44 -117 l25 -43 -198 -3 c-196 -3 -199 -3 -258 -32 -36 -18 -84 -54 -121 -91 -80 -81 -115 -164 -122 -285 -4 -77 -1 -92 27 -166 44 -113 111 -186 223 -241 106 -53 168 -73 221 -73 23 0 71 -9 105 -20 35 -11 81 -20 102 -20 20 0 73 -9 116 -20 44 -11 95 -20 114 -21 19 0 51 -6 70 -13 l35 -13 -40 -8 c-22 -4 -86 -7 -141 -6 -118 2 -199 -20 -274 -75 -100 -73 -152 -151 -176 -268 -29 -142 12 -280 114 -383 29 -29 76 -65 105 -79 28 -15 53 -28 55 -29 2 -1 -10 -29 -25 -61 -25 -54 -28 -69 -28 -169 0 -107 1 -112 37 -186 86 -175 251 -262 448 -237 30 4 98 12 150 17 52 5 115 17 140 26 68 25 135 23 215 -7 64 -25 81 -27 235 -27 228 -1 571 -27 600 -45 24 -16 328 -36 650 -43 436 -10 660 -23 955 -54 50 -5 137 -14 195 -19 244 -22 286 -27 299 -34 27 -17 620 -54 886 -55 277 -2 566 -11 630 -21 40 -7 81 -6 122 1 40 7 150 9 310 5 136 -4 266 -7 288 -7 71 -1 169 -1 210 -1 22 0 69 0 105 0 111 -1 121 0 275 9 83 5 157 13 165 18 8 5 28 8 45 7 16 -1 53 2 80 8 28 6 90 15 138 19 178 18 314 127 366 295 27 87 27 175 0 262 -25 81 -61 137 -126 194 -47 41 -136 90 -165 90 -33 0 -23 13 30 42 101 52 173 137 211 246 56 165 -4 368 -139 469 -58 43 -52 53 30 53 30 0 71 5 90 11 19 6 62 13 95 15 33 3 82 11 109 19 27 8 74 15 103 15 36 0 80 10 136 32 68 26 93 42 143 92 35 35 73 86 90 121 27 57 29 67 29 185 0 121 -1 127 -32 187 -30 57 -134 173 -155 173 -5 0 -24 11 -41 24 -51 39 -136 74 -196 82 -31 4 -65 13 -76 20 -11 7 -51 20 -90 30 -38 9 -75 21 -81 26 -21 16 -154 58 -184 58 -16 0 -53 9 -82 20 -29 12 -87 25 -128 30 -41 5 -106 18 -145 29 l-70 19 45 6 c25 3 79 8 120 11 41 4 90 14 110 23 34 15 84 22 270 40 157 15 248 60 336 169 85 104 114 252 76 380 -26 85 -68 149 -140 213 -98 87 -262 123 -388 85 -27 -8 -79 -15 -115 -15 -37 0 -86 -7 -110 -16 -44 -17 -101 -26 -281 -43 -53 -6 -113 -17 -133 -26 -21 -8 -66 -15 -100 -15 -34 0 -82 -7 -105 -15 -23 -8 -63 -15 -89 -15 -25 0 -60 -4 -77 -9 -31 -9 -32 -8 -38 31 -15 92 -108 225 -192 274 -100 59 -244 80 -340 50z m-4069 -1071 c189 -49 328 -190 365 -372 19 -90 8 -243 -24 -337 -52 -153 -141 -262 -391 -481 -77 -67 -157 -140 -177 -163 -107 -119 -126 -281 -43 -362 28 -27 44 -34 88 -38 47 -4 57 -1 86 24 44 37 58 73 72 185 6 52 12 95 14 97 2 2 81 -9 175 -24 l172 -27 -7 -81 c-14 -163 -85 -317 -180 -389 -198 -151 -574 -117 -744 68 -163 177 -162 521 2 734 23 30 107 111 187 179 195 169 311 287 338 344 45 97 54 196 23 265 -28 60 -58 76 -132 71 -57 -4 -65 -8 -99 -45 -45 -47 -69 -120 -78 -237 l-7 -81 -50 3 c-46 2 -244 36 -289 49 -44 13 10 290 79 404 68 110 174 185 306 213 87 19 241 20 314 1z m4370 -5 c187 -48 293 -170 303 -348 4 -68 1 -93 -18 -145 -39 -106 -77 -151 -302 -354 -203 -182 -228 -212 -228 -271 0 -34 37 -78 74 -88 78 -19 158 60 201 203 3 8 41 -4 117 -38 62 -28 118 -53 125 -56 30 -12 -51 -184 -120 -254 -64 -65 -144 -105 -238 -118 -158 -22 -303 24 -399 125 -77 81 -94 128 -95 254 0 93 3 111 27 162 44 95 104 163 272 307 195 169 235 216 236 279 0 24 -8 42 -29 63 -24 24 -38 29 -78 29 -74 0 -114 -33 -160 -130 -21 -44 -43 -80 -49 -80 -11 0 -254 96 -261 104 -3 2 13 43 35 90 44 94 117 179 186 219 113 66 260 83 401 47z m-3425 -283 l0 -273 54 -72 c43 -59 55 -69 61 -55 4 10 35 97 70 193 35 96 88 243 118 325 l55 150 205 3 206 2 -18 -42 c-11 -24 -65 -151 -121 -283 -56 -132 -129 -304 -162 -382 -33 -79 -58 -149 -55 -156 3 -8 74 -124 159 -258 85 -134 164 -261 177 -281 l23 -38 -210 0 -211 0 -158 251 c-87 138 -166 260 -175 272 -16 21 -17 -7 -18 -540 l0 -563 -190 0 -190 0 0 1010 0 1010 190 0 190 0 0 -273z m1290 -447 l0 -720 -190 0 -190 0 0 720 0 720 190 0 190 0 0 -720z m660 -290 l0 -1010 -190 0 -190 0 0 1010 0 1010 190 0 190 0 0 -1010z m660 0 l0 -1010 -190 0 -190 0 0 1010 0 1010 190 0 190 0 0 -1010z m-1320 -815 l0 -145 -190 0 -190 0 0 145 0 145 190 0 190 0 0 -145z"/>
 <path d="M14970 6065 c-15 -27 -9 -41 13 -32 18 7 29 57 12 57 -6 0 -18 -11 -25 -25z"/>
 </g>

</svg>