<!DOCTYPE svg PUBLIC "-//W3C//DTD SVG 20010904//EN" "http://www.w3.org/TR/2001/REC-SVG-20010904/DTD/svg10.dtd">
<svg version="1.0" xmlns="http://www.w3.org/2000/svg" width="512px" height="512px" viewBox="0 0 5120 5120" preserveAspectRatio="xMidYMid meet">
<g id="layer1" fill="#ffa500" stroke="none">
 <path d="M1575 4284 c-16 -2 -73 -9 -125 -15 -145 -16 -320 -56 -470 -105 -141 -47 -375 -155 -473 -218 -50 -32 -58 -40 -55 -64 l3 -27 195 -1 c206 -1 278 -10 455 -59 163 -44 330 -119 471 -211 53 -35 57 -39 34 -42 -57 -8 -180 -43 -234 -67 -131 -58 -277 -180 -358 -299 -59 -85 -110 -201 -106 -239 l3 -32 123 3 c67 2 122 1 122 -2 0 -4 -25 -17 -55 -31 -82 -36 -197 -119 -263 -190 -151 -161 -237 -373 -230 -569 3 -76 4 -81 26 -84 12 -2 60 12 105 31 45 19 98 38 117 42 l35 8 -62 -66 c-166 -177 -243 -431 -215 -705 12 -114 46 -237 85 -308 17 -28 30 -40 50 -42 24 -3 45 14 159 133 218 227 420 376 693 510 164 81 349 148 520 188 114 27 328 61 345 55 7 -2 12 -69 14 -173 3 -178 12 -226 60 -347 38 -94 86 -165 170 -255 186 -198 406 -282 701 -270 227 10 380 69 552 215 l53 44 72 -22 c115 -34 205 -69 311 -122 120 -59 151 -61 155 -7 6 66 -82 225 -185 337 -30 31 -43 52 -34 52 8 0 75 -20 149 -46 74 -25 144 -44 156 -42 16 2 22 11 24 35 3 26 -6 45 -44 95 -62 82 -222 246 -300 309 l-62 49 -6 157 c-29 655 -266 1228 -693 1673 -410 428 -916 667 -1523 720 -107 9 -397 11 -465 4z"/>
 </g>

</svg>